<svg xmlns="http://www.w3.org/2000/svg" xmlns:xlink="http://www.w3.org/1999/xlink" width="700" zoomAndPan="magnify" viewBox="0 0 525 374.999991" height="500" preserveAspectRatio="xMidYMid meet" version="1.0"><defs><g/><clipPath id="813c24d81e"><path d="M 19.125 141.25 L 121 141.25 L 121 170 L 19.125 170 Z M 19.125 141.25 " clip-rule="nonzero"/></clipPath></defs><path fill="#4fbf8b" d="M 31.484375 168.621094 C 31.574219 168.621094 31.667969 168.621094 31.765625 168.621094 C 31.925781 168.617188 31.925781 168.617188 32.089844 168.617188 C 32.269531 168.621094 32.269531 168.621094 32.453125 168.621094 C 32.578125 168.621094 32.707031 168.621094 32.835938 168.621094 C 33.1875 168.621094 33.539062 168.621094 33.886719 168.621094 C 34.265625 168.621094 34.644531 168.621094 35.023438 168.621094 C 35.675781 168.621094 36.332031 168.621094 36.988281 168.621094 C 37.9375 168.621094 38.882812 168.621094 39.832031 168.621094 C 41.367188 168.621094 42.90625 168.625 44.441406 168.625 C 45.933594 168.625 47.429688 168.625 48.921875 168.628906 C 49.015625 168.628906 49.105469 168.628906 49.199219 168.628906 C 49.664062 168.628906 50.125 168.628906 50.585938 168.628906 C 54.414062 168.628906 58.246094 168.632812 62.078125 168.632812 C 62.078125 169.191406 61.894531 169.511719 61.648438 169.980469 C 60.4375 172.386719 59.550781 175.019531 59.074219 177.710938 C 59.054688 177.816406 59.035156 177.917969 59.011719 178.027344 C 58.371094 181.535156 58.414062 185.265625 59.074219 188.765625 C 59.089844 188.859375 59.105469 188.953125 59.121094 189.050781 C 59.902344 193.371094 61.785156 197.460938 64.332031 200.871094 C 64.375 200.929688 64.421875 200.992188 64.46875 201.054688 C 65.597656 202.578125 66.863281 203.992188 68.304688 205.175781 C 68.390625 205.25 68.390625 205.25 68.484375 205.324219 C 70.011719 206.589844 71.605469 207.667969 73.347656 208.550781 C 73.425781 208.589844 73.503906 208.628906 73.582031 208.671875 C 76.980469 210.402344 80.625 211.253906 84.378906 211.257812 C 84.460938 211.257812 84.542969 211.257812 84.628906 211.257812 C 86.042969 211.257812 87.414062 211.152344 88.804688 210.878906 C 88.890625 210.863281 88.976562 210.847656 89.066406 210.828125 C 92.503906 210.171875 95.910156 208.730469 98.789062 206.574219 C 98.960938 206.445312 98.960938 206.445312 99.140625 206.3125 C 100.078125 205.613281 100.941406 204.835938 101.792969 204.011719 C 101.851562 203.957031 101.910156 203.898438 101.972656 203.839844 C 102.636719 203.199219 103.261719 202.542969 103.832031 201.800781 C 103.917969 201.699219 104 201.597656 104.089844 201.492188 C 105.132812 200.21875 106.035156 198.792969 106.796875 197.300781 C 106.84375 197.207031 106.894531 197.113281 106.941406 197.015625 C 106.980469 196.941406 107.015625 196.871094 107.054688 196.796875 C 106.972656 196.796875 106.890625 196.796875 106.804688 196.796875 C 104.804688 196.800781 102.804688 196.800781 100.804688 196.804688 C 99.835938 196.804688 98.867188 196.804688 97.902344 196.804688 C 97.058594 196.808594 96.214844 196.808594 95.371094 196.808594 C 94.925781 196.808594 94.480469 196.808594 94.03125 196.808594 C 93.613281 196.808594 93.195312 196.8125 92.773438 196.808594 C 92.617188 196.808594 92.464844 196.8125 92.308594 196.8125 C 92.101562 196.8125 91.890625 196.8125 91.679688 196.8125 C 91.5625 196.8125 91.445312 196.8125 91.324219 196.8125 C 91.058594 196.796875 91.058594 196.796875 90.953125 196.679688 C 90.941406 196.503906 90.9375 196.328125 90.9375 196.152344 C 90.9375 196.035156 90.9375 195.921875 90.9375 195.804688 C 90.9375 195.675781 90.9375 195.550781 90.9375 195.417969 C 90.9375 195.285156 90.9375 195.152344 90.9375 195.015625 C 90.9375 194.578125 90.9375 194.136719 90.9375 193.695312 C 90.9375 193.390625 90.9375 193.085938 90.9375 192.78125 C 90.9375 192.140625 90.9375 191.5 90.9375 190.859375 C 90.9375 190.121094 90.9375 189.378906 90.9375 188.640625 C 90.9375 187.925781 90.9375 187.214844 90.9375 186.503906 C 90.9375 186.203125 90.9375 185.898438 90.9375 185.59375 C 90.9375 185.171875 90.9375 184.75 90.9375 184.324219 C 90.9375 184.199219 90.9375 184.074219 90.9375 183.941406 C 90.9375 183.828125 90.9375 183.710938 90.9375 183.59375 C 90.9375 183.496094 90.9375 183.394531 90.9375 183.292969 C 90.953125 183.066406 90.953125 183.066406 91.058594 182.949219 C 91.230469 182.9375 91.398438 182.933594 91.570312 182.933594 C 91.679688 182.933594 91.792969 182.933594 91.90625 182.933594 C 92.03125 182.933594 92.15625 182.933594 92.28125 182.933594 C 92.414062 182.933594 92.542969 182.933594 92.675781 182.933594 C 93.039062 182.933594 93.402344 182.933594 93.765625 182.933594 C 94.15625 182.933594 94.546875 182.933594 94.9375 182.933594 C 95.703125 182.933594 96.472656 182.933594 97.238281 182.933594 C 97.859375 182.933594 98.484375 182.933594 99.105469 182.933594 C 99.195312 182.933594 99.28125 182.933594 99.375 182.933594 C 99.554688 182.933594 99.730469 182.933594 99.910156 182.933594 C 101.597656 182.933594 103.285156 182.933594 104.972656 182.933594 C 106.417969 182.933594 107.867188 182.933594 109.316406 182.933594 C 110.996094 182.933594 112.675781 182.933594 114.355469 182.933594 C 114.535156 182.933594 114.714844 182.933594 114.894531 182.933594 C 115.027344 182.933594 115.027344 182.933594 115.160156 182.933594 C 115.78125 182.933594 116.40625 182.933594 117.027344 182.933594 C 117.785156 182.933594 118.542969 182.933594 119.300781 182.933594 C 119.6875 182.933594 120.074219 182.933594 120.460938 182.933594 C 120.878906 182.933594 121.296875 182.933594 121.71875 182.933594 C 121.839844 182.933594 121.964844 182.933594 122.089844 182.933594 C 122.203125 182.933594 122.3125 182.933594 122.429688 182.933594 C 122.523438 182.933594 122.621094 182.933594 122.722656 182.933594 C 122.941406 182.949219 122.941406 182.949219 123.046875 183.066406 C 123.078125 183.585938 123.074219 184.113281 123.074219 184.636719 C 123.074219 184.753906 123.074219 184.753906 123.074219 184.875 C 123.070312 186.425781 122.949219 187.933594 122.726562 189.464844 C 122.699219 189.65625 122.699219 189.65625 122.667969 189.847656 C 121.757812 195.917969 119.683594 201.886719 116.390625 206.921875 C 116.320312 207.03125 116.246094 207.144531 116.171875 207.257812 C 115.960938 207.574219 115.75 207.890625 115.53125 208.203125 C 115.453125 208.320312 115.371094 208.4375 115.285156 208.558594 C 113.402344 211.269531 111.234375 213.78125 108.769531 215.882812 C 108.628906 216.007812 108.484375 216.132812 108.34375 216.257812 C 102.984375 220.898438 96.445312 223.8125 89.671875 224.828125 C 89.589844 224.839844 89.511719 224.855469 89.429688 224.867188 C 87.796875 225.109375 86.171875 225.21875 84.527344 225.214844 C 84.449219 225.214844 84.371094 225.214844 84.292969 225.214844 C 82.855469 225.210938 81.433594 225.136719 80.003906 224.960938 C 79.890625 224.945312 79.78125 224.933594 79.664062 224.917969 C 76.238281 224.476562 72.875 223.507812 69.699219 222.050781 C 69.628906 222.019531 69.5625 221.988281 69.492188 221.957031 C 68.394531 221.453125 67.320312 220.902344 66.265625 220.304688 C 66.191406 220.265625 66.117188 220.222656 66.042969 220.179688 C 64.988281 219.582031 63.984375 218.910156 62.992188 218.195312 C 62.882812 218.121094 62.777344 218.042969 62.667969 217.964844 C 62.0625 217.523438 61.484375 217.058594 60.921875 216.558594 C 60.683594 216.351562 60.441406 216.148438 60.199219 215.949219 C 59.757812 215.578125 59.339844 215.175781 58.929688 214.765625 C 58.703125 214.546875 58.476562 214.328125 58.246094 214.113281 C 57.726562 213.625 57.242188 213.101562 56.757812 212.574219 C 56.671875 212.480469 56.582031 212.386719 56.492188 212.289062 C 55.972656 211.722656 55.472656 211.140625 54.992188 210.53125 C 54.9375 210.457031 54.882812 210.386719 54.824219 210.316406 C 53.460938 208.550781 52.269531 206.679688 51.15625 204.71875 C 51.046875 204.519531 50.929688 204.320312 50.816406 204.121094 C 49.652344 202.050781 48.800781 199.761719 48.015625 197.496094 C 47.960938 197.328125 47.960938 197.328125 47.902344 197.160156 C 46.46875 192.964844 45.726562 188.363281 45.753906 183.894531 C 45.757812 183.757812 45.757812 183.621094 45.757812 183.480469 C 45.757812 183.148438 45.761719 182.816406 45.761719 182.484375 C 45.628906 182.484375 45.628906 182.484375 45.492188 182.488281 C 41.355469 182.585938 37.960938 181.683594 34.851562 178.566406 C 32.652344 176.1875 31.179688 172.804688 31.144531 169.417969 C 31.148438 168.640625 31.148438 168.640625 31.484375 168.621094 Z M 31.484375 168.621094 " fill-opacity="1" fill-rule="nonzero"/><g clip-path="url(#813c24d81e)"><path fill="#4fbf8b" d="M 19.6875 141.265625 C 19.78125 141.265625 19.878906 141.265625 19.976562 141.265625 C 20.132812 141.265625 20.132812 141.265625 20.296875 141.265625 C 20.40625 141.265625 20.519531 141.265625 20.632812 141.265625 C 21.015625 141.265625 21.394531 141.265625 21.773438 141.265625 C 22.046875 141.265625 22.320312 141.265625 22.59375 141.265625 C 23.191406 141.265625 23.785156 141.265625 24.382812 141.265625 C 25.269531 141.265625 26.15625 141.265625 27.042969 141.265625 C 28.71875 141.261719 30.394531 141.261719 32.074219 141.261719 C 33.367188 141.261719 34.664062 141.261719 35.960938 141.261719 C 36.332031 141.261719 36.707031 141.261719 37.078125 141.261719 C 37.171875 141.261719 37.265625 141.261719 37.359375 141.261719 C 39.96875 141.261719 42.578125 141.261719 45.1875 141.261719 C 45.285156 141.261719 45.382812 141.261719 45.484375 141.261719 C 45.984375 141.261719 46.484375 141.261719 46.984375 141.261719 C 47.082031 141.261719 47.179688 141.261719 47.28125 141.261719 C 47.484375 141.261719 47.683594 141.261719 47.882812 141.261719 C 50.996094 141.261719 54.109375 141.261719 57.222656 141.257812 C 60.722656 141.257812 64.21875 141.253906 67.714844 141.253906 C 68.089844 141.253906 68.464844 141.253906 68.835938 141.253906 C 68.929688 141.253906 69.019531 141.253906 69.117188 141.253906 C 70.59375 141.253906 72.066406 141.253906 73.542969 141.253906 C 75.03125 141.253906 76.519531 141.253906 78.003906 141.253906 C 78.886719 141.253906 79.769531 141.253906 80.648438 141.253906 C 81.3125 141.25 81.972656 141.253906 82.632812 141.253906 C 82.898438 141.253906 83.164062 141.253906 83.429688 141.253906 C 85.785156 141.246094 88.125 141.375 90.457031 141.769531 C 90.527344 141.78125 90.601562 141.792969 90.675781 141.804688 C 94.527344 142.457031 98.285156 143.78125 101.746094 145.730469 C 102.074219 145.914062 102.402344 146.085938 102.734375 146.257812 C 105.515625 147.773438 107.984375 149.835938 110.3125 152.054688 C 110.46875 152.203125 110.625 152.347656 110.78125 152.492188 C 110.859375 152.5625 110.9375 152.636719 111.019531 152.710938 C 111.117188 152.796875 111.117188 152.796875 111.214844 152.890625 C 111.347656 153.035156 111.347656 153.035156 111.347656 153.269531 C 111.441406 153.316406 111.441406 153.316406 111.542969 153.363281 C 111.777344 153.5 111.925781 153.628906 112.097656 153.851562 C 112.097656 153.929688 112.097656 154.003906 112.097656 154.082031 C 112.164062 154.113281 112.226562 154.144531 112.292969 154.175781 C 112.539062 154.324219 112.664062 154.453125 112.84375 154.6875 C 113.09375 155.011719 113.347656 155.332031 113.605469 155.648438 C 115.835938 158.394531 117.722656 161.488281 119.183594 164.785156 C 119.292969 165.03125 119.402344 165.273438 119.511719 165.515625 C 119.878906 166.339844 120.226562 167.171875 120.53125 168.027344 C 120.574219 168.144531 120.574219 168.144531 120.617188 168.261719 C 120.757812 168.671875 120.804688 168.914062 120.683594 169.328125 C 118.921875 169.386719 117.15625 169.429688 115.390625 169.457031 C 114.570312 169.46875 113.75 169.484375 112.929688 169.515625 C 112.214844 169.539062 111.5 169.554688 110.785156 169.558594 C 110.40625 169.5625 110.027344 169.570312 109.648438 169.585938 C 107.359375 169.691406 107.359375 169.691406 106.675781 169.09375 C 106.207031 168.515625 105.886719 167.875 105.582031 167.183594 C 105.375 166.742188 105.109375 166.371094 104.820312 165.992188 C 104.773438 165.925781 104.722656 165.863281 104.675781 165.796875 C 104.078125 164.996094 103.441406 164.230469 102.757812 163.511719 C 102.222656 162.929688 102.222656 162.929688 102.0625 162.746094 C 98.054688 158.253906 91.617188 155.410156 85.890625 155.242188 C 85.214844 155.230469 84.542969 155.230469 83.867188 155.230469 C 83.640625 155.230469 83.410156 155.230469 83.179688 155.230469 C 82.554688 155.230469 81.925781 155.230469 81.296875 155.230469 C 80.621094 155.230469 79.941406 155.226562 79.265625 155.226562 C 78.167969 155.226562 77.070312 155.226562 75.972656 155.222656 C 74.117188 155.222656 72.265625 155.222656 70.410156 155.21875 C 69.699219 155.21875 68.984375 155.214844 68.269531 155.214844 C 68.191406 155.214844 68.109375 155.214844 68.03125 155.214844 C 66.140625 155.210938 64.257812 155.210938 62.367188 155.207031 C 62.285156 155.207031 62.203125 155.207031 62.121094 155.207031 C 60.195312 155.207031 58.269531 155.203125 56.34375 155.203125 C 56.222656 155.203125 56.222656 155.203125 56.09375 155.203125 C 55.425781 155.203125 54.761719 155.203125 54.09375 155.199219 C 51.339844 155.199219 48.585938 155.195312 45.832031 155.191406 C 45.441406 155.191406 45.054688 155.191406 44.664062 155.1875 C 44.589844 155.1875 44.511719 155.1875 44.433594 155.1875 C 43.203125 155.1875 41.972656 155.1875 40.742188 155.1875 C 39.503906 155.1875 38.269531 155.183594 37.03125 155.183594 C 36.363281 155.179688 35.691406 155.179688 35.023438 155.179688 C 34.410156 155.179688 33.792969 155.179688 33.179688 155.175781 C 32.960938 155.175781 32.738281 155.175781 32.515625 155.179688 C 28.8125 155.1875 25.585938 153.984375 22.898438 151.175781 C 22.78125 151.058594 22.78125 151.058594 22.664062 150.941406 C 21.511719 149.769531 20.753906 148.296875 20.109375 146.753906 C 20.054688 146.632812 20.003906 146.511719 19.949219 146.386719 C 19.636719 145.59375 19.46875 144.789062 19.324219 143.945312 C 19.304688 143.839844 19.285156 143.734375 19.265625 143.625 C 19.148438 142.882812 19.089844 142.148438 19.140625 141.398438 C 19.308594 141.21875 19.457031 141.269531 19.6875 141.265625 Z M 19.6875 141.265625 " fill-opacity="1" fill-rule="nonzero"/></g><g fill="#2b3441" fill-opacity="1"><g transform="translate(130.082681, 209.368187)"><g><path d="M 4.421875 0 L 4.421875 -37.75 L 17.4375 -37.75 L 17.4375 -32.3125 L 17.59375 -32.3125 C 17.6875 -32.507812 17.84375 -32.753906 18.0625 -33.046875 C 18.289062 -33.335938 18.769531 -33.847656 19.5 -34.578125 C 20.238281 -35.316406 21.023438 -35.976562 21.859375 -36.5625 C 22.691406 -37.15625 23.769531 -37.6875 25.09375 -38.15625 C 26.414062 -38.625 27.765625 -38.859375 29.140625 -38.859375 C 30.566406 -38.859375 31.96875 -38.660156 33.34375 -38.265625 C 34.71875 -37.878906 35.722656 -37.488281 36.359375 -37.09375 L 37.390625 -36.5 L 31.9375 -25.46875 C 30.320312 -26.84375 28.066406 -27.53125 25.171875 -27.53125 C 23.597656 -27.53125 22.242188 -27.1875 21.109375 -26.5 C 19.984375 -25.8125 19.1875 -24.972656 18.71875 -23.984375 C 18.257812 -23.003906 17.929688 -22.171875 17.734375 -21.484375 C 17.535156 -20.796875 17.4375 -20.257812 17.4375 -19.875 L 17.4375 0 Z M 4.421875 0 "/></g></g></g><g fill="#2b3441" fill-opacity="1"><g transform="translate(166.291351, 209.368187)"><g><path d="M 42.609375 -17.078125 L 15.234375 -17.078125 C 15.234375 -14.421875 16.09375 -12.453125 17.8125 -11.171875 C 19.53125 -9.898438 21.394531 -9.265625 23.40625 -9.265625 C 25.507812 -9.265625 27.175781 -9.546875 28.40625 -10.109375 C 29.632812 -10.679688 31.035156 -11.800781 32.609375 -13.46875 L 42.015625 -8.75 C 38.097656 -2.175781 31.578125 1.109375 22.453125 1.109375 C 16.753906 1.109375 11.867188 -0.835938 7.796875 -4.734375 C 3.722656 -8.640625 1.6875 -13.335938 1.6875 -18.828125 C 1.6875 -24.328125 3.722656 -29.039062 7.796875 -32.96875 C 11.867188 -36.894531 16.753906 -38.859375 22.453125 -38.859375 C 28.429688 -38.859375 33.296875 -37.128906 37.046875 -33.671875 C 40.804688 -30.210938 42.6875 -25.269531 42.6875 -18.84375 C 42.6875 -17.957031 42.660156 -17.367188 42.609375 -17.078125 Z M 15.609375 -24.28125 L 29.953125 -24.28125 C 29.660156 -26.25 28.890625 -27.757812 27.640625 -28.8125 C 26.390625 -29.863281 24.78125 -30.390625 22.8125 -30.390625 C 20.65625 -30.390625 18.9375 -29.828125 17.65625 -28.703125 C 16.382812 -27.578125 15.703125 -26.101562 15.609375 -24.28125 Z M 15.609375 -24.28125 "/></g></g></g><g fill="#2b3441" fill-opacity="1"><g transform="translate(210.669063, 209.368187)"><g><path d="M 42.609375 -17.078125 L 15.234375 -17.078125 C 15.234375 -14.421875 16.09375 -12.453125 17.8125 -11.171875 C 19.53125 -9.898438 21.394531 -9.265625 23.40625 -9.265625 C 25.507812 -9.265625 27.175781 -9.546875 28.40625 -10.109375 C 29.632812 -10.679688 31.035156 -11.800781 32.609375 -13.46875 L 42.015625 -8.75 C 38.097656 -2.175781 31.578125 1.109375 22.453125 1.109375 C 16.753906 1.109375 11.867188 -0.835938 7.796875 -4.734375 C 3.722656 -8.640625 1.6875 -13.335938 1.6875 -18.828125 C 1.6875 -24.328125 3.722656 -29.039062 7.796875 -32.96875 C 11.867188 -36.894531 16.753906 -38.859375 22.453125 -38.859375 C 28.429688 -38.859375 33.296875 -37.128906 37.046875 -33.671875 C 40.804688 -30.210938 42.6875 -25.269531 42.6875 -18.84375 C 42.6875 -17.957031 42.660156 -17.367188 42.609375 -17.078125 Z M 15.609375 -24.28125 L 29.953125 -24.28125 C 29.660156 -26.25 28.890625 -27.757812 27.640625 -28.8125 C 26.390625 -29.863281 24.78125 -30.390625 22.8125 -30.390625 C 20.65625 -30.390625 18.9375 -29.828125 17.65625 -28.703125 C 16.382812 -27.578125 15.703125 -26.101562 15.609375 -24.28125 Z M 15.609375 -24.28125 "/></g></g></g><g fill="#2b3441" fill-opacity="1"><g transform="translate(254.89958, 209.368187)"><g><path d="M 4.421875 0 L 4.421875 -37.75 L 17.4375 -37.75 L 17.4375 -33.78125 L 17.59375 -33.78125 C 20.976562 -37.164062 24.582031 -38.859375 28.40625 -38.859375 C 30.269531 -38.859375 32.117188 -38.613281 33.953125 -38.125 C 35.796875 -37.632812 37.5625 -36.875 39.25 -35.84375 C 40.945312 -34.8125 42.320312 -33.347656 43.375 -31.453125 C 44.4375 -29.566406 44.96875 -27.375 44.96875 -24.875 L 44.96875 0 L 31.9375 0 L 31.9375 -21.34375 C 31.9375 -23.300781 31.3125 -25.015625 30.0625 -26.484375 C 28.8125 -27.960938 27.179688 -28.703125 25.171875 -28.703125 C 23.203125 -28.703125 21.421875 -27.941406 19.828125 -26.421875 C 18.234375 -24.898438 17.4375 -23.207031 17.4375 -21.34375 L 17.4375 0 Z M 4.421875 0 "/></g></g></g><g fill="#2b3441" fill-opacity="1"><g transform="translate(303.545806, 209.368187)"><g><path d="M 26.78125 -61.8125 C 30.070312 -61.8125 33.285156 -61.332031 36.421875 -60.375 C 39.566406 -59.425781 41.898438 -58.484375 43.421875 -57.546875 L 45.625 -56.078125 L 40.03125 -45.046875 C 39.59375 -45.335938 38.976562 -45.710938 38.1875 -46.171875 C 37.40625 -46.640625 35.9375 -47.265625 33.78125 -48.046875 C 31.625 -48.835938 29.613281 -49.234375 27.75 -49.234375 C 25.4375 -49.234375 23.65625 -48.742188 22.40625 -47.765625 C 21.15625 -46.785156 20.53125 -45.457031 20.53125 -43.78125 C 20.53125 -42.945312 20.820312 -42.175781 21.40625 -41.46875 C 22 -40.757812 23.003906 -40 24.421875 -39.1875 C 25.847656 -38.375 27.101562 -37.722656 28.1875 -37.234375 C 29.269531 -36.742188 30.9375 -36.007812 33.1875 -35.03125 C 37.113281 -33.363281 40.460938 -31.09375 43.234375 -28.21875 C 46.003906 -25.351562 47.390625 -22.101562 47.390625 -18.46875 C 47.390625 -14.988281 46.765625 -11.945312 45.515625 -9.34375 C 44.265625 -6.75 42.546875 -4.710938 40.359375 -3.234375 C 38.179688 -1.765625 35.765625 -0.675781 33.109375 0.03125 C 30.460938 0.75 27.59375 1.109375 24.5 1.109375 C 21.851562 1.109375 19.253906 0.835938 16.703125 0.296875 C 14.148438 -0.242188 12.015625 -0.914062 10.296875 -1.71875 C 8.585938 -2.53125 7.046875 -3.328125 5.671875 -4.109375 C 4.296875 -4.898438 3.289062 -5.566406 2.65625 -6.109375 L 1.6875 -6.921875 L 8.609375 -18.546875 C 9.203125 -18.054688 10.007812 -17.429688 11.03125 -16.671875 C 12.0625 -15.910156 13.890625 -14.890625 16.515625 -13.609375 C 19.140625 -12.335938 21.457031 -11.703125 23.46875 -11.703125 C 29.3125 -11.703125 32.234375 -13.6875 32.234375 -17.65625 C 32.234375 -18.488281 32.023438 -19.257812 31.609375 -19.96875 C 31.191406 -20.6875 30.453125 -21.398438 29.390625 -22.109375 C 28.335938 -22.828125 27.40625 -23.394531 26.59375 -23.8125 C 25.789062 -24.226562 24.46875 -24.863281 22.625 -25.71875 C 20.789062 -26.582031 19.429688 -27.234375 18.546875 -27.671875 C 14.867188 -29.484375 12.019531 -31.75 10 -34.46875 C 7.988281 -37.195312 6.984375 -40.128906 6.984375 -43.265625 C 6.984375 -48.710938 8.992188 -53.164062 13.015625 -56.625 C 17.046875 -60.082031 21.632812 -61.8125 26.78125 -61.8125 Z M 26.78125 -61.8125 "/></g></g></g><g fill="#2b3441" fill-opacity="1"><g transform="translate(353.001575, 209.368187)"><g><path d="M 4.421875 0 L 4.421875 -63.296875 L 17.4375 -63.296875 L 17.4375 -33.78125 L 17.59375 -33.78125 C 20.976562 -37.164062 24.582031 -38.859375 28.40625 -38.859375 C 30.269531 -38.859375 32.117188 -38.613281 33.953125 -38.125 C 35.796875 -37.632812 37.5625 -36.875 39.25 -35.84375 C 40.945312 -34.8125 42.320312 -33.347656 43.375 -31.453125 C 44.4375 -29.566406 44.96875 -27.375 44.96875 -24.875 L 44.96875 0 L 31.9375 0 L 31.9375 -21.34375 C 31.9375 -23.300781 31.3125 -25.015625 30.0625 -26.484375 C 28.8125 -27.960938 27.179688 -28.703125 25.171875 -28.703125 C 23.203125 -28.703125 21.421875 -27.941406 19.828125 -26.421875 C 18.234375 -24.898438 17.4375 -23.207031 17.4375 -21.34375 L 17.4375 0 Z M 4.421875 0 "/></g></g></g><g fill="#2b3441" fill-opacity="1"><g transform="translate(401.647801, 209.368187)"><g><path d="M 7.984375 -4.484375 C 3.785156 -8.210938 1.6875 -12.992188 1.6875 -18.828125 C 1.6875 -24.671875 3.867188 -29.46875 8.234375 -33.21875 C 12.609375 -36.976562 18.007812 -38.859375 24.4375 -38.859375 C 30.757812 -38.859375 36.09375 -36.96875 40.4375 -33.1875 C 44.78125 -29.414062 46.953125 -24.632812 46.953125 -18.84375 C 46.953125 -13.050781 44.828125 -8.273438 40.578125 -4.515625 C 36.335938 -0.765625 30.957031 1.109375 24.4375 1.109375 C 17.664062 1.109375 12.179688 -0.753906 7.984375 -4.484375 Z M 18.0625 -25.234375 C 16.375 -23.566406 15.53125 -21.429688 15.53125 -18.828125 C 15.53125 -16.234375 16.335938 -14.113281 17.953125 -12.46875 C 19.578125 -10.832031 21.710938 -10.015625 24.359375 -10.015625 C 26.910156 -10.015625 29.007812 -10.847656 30.65625 -12.515625 C 32.300781 -14.179688 33.125 -16.289062 33.125 -18.84375 C 33.125 -21.4375 32.273438 -23.566406 30.578125 -25.234375 C 28.890625 -26.910156 26.816406 -27.75 24.359375 -27.75 C 21.859375 -27.75 19.757812 -26.910156 18.0625 -25.234375 Z M 18.0625 -25.234375 "/></g></g></g><g fill="#2b3441" fill-opacity="1"><g transform="translate(450.146832, 209.368187)"><g><path d="M 43.265625 -33.078125 C 46.804688 -29.222656 48.578125 -24.5 48.578125 -18.90625 C 48.578125 -13.320312 46.804688 -8.585938 43.265625 -4.703125 C 39.734375 -0.828125 35.25 1.109375 29.8125 1.109375 C 24.800781 1.109375 20.675781 -0.460938 17.4375 -3.609375 L 17.4375 19.140625 L 4.421875 19.140625 L 4.421875 -37.75 L 17.296875 -37.75 L 17.296875 -33.484375 L 17.4375 -33.484375 C 20.675781 -37.066406 24.800781 -38.859375 29.8125 -38.859375 C 35.25 -38.859375 39.734375 -36.929688 43.265625 -33.078125 Z M 32.1875 -12.515625 C 33.882812 -14.179688 34.734375 -16.3125 34.734375 -18.90625 C 34.734375 -21.507812 33.921875 -23.632812 32.296875 -25.28125 C 30.679688 -26.925781 28.550781 -27.75 25.90625 -27.75 C 23.351562 -27.75 21.253906 -26.910156 19.609375 -25.234375 C 17.960938 -23.566406 17.140625 -21.457031 17.140625 -18.90625 C 17.140625 -16.3125 17.984375 -14.179688 19.671875 -12.515625 C 21.367188 -10.847656 23.445312 -10.015625 25.90625 -10.015625 C 28.40625 -10.015625 30.5 -10.847656 32.1875 -12.515625 Z M 32.1875 -12.515625 "/></g></g></g></svg>