<svg xmlns="http://www.w3.org/2000/svg" xmlns:xlink="http://www.w3.org/1999/xlink" width="2500" zoomAndPan="magnify" viewBox="0 0 1874.88 374.999991" height="500" preserveAspectRatio="xMidYMid meet" version="1.0"><defs><g/><clipPath id="d2d2496234"><path d="M 37.496094 17.351562 L 414 17.351562 L 414 123 L 37.496094 123 Z M 37.496094 17.351562 " clip-rule="nonzero"/></clipPath></defs><path fill="#4fbf8b" d="M 83.199219 118.550781 C 83.542969 118.550781 83.890625 118.550781 84.246094 118.550781 C 84.84375 118.550781 84.84375 118.550781 85.453125 118.546875 C 86.113281 118.550781 86.113281 118.550781 86.789062 118.550781 C 87.257812 118.550781 87.722656 118.550781 88.203125 118.550781 C 89.5 118.550781 90.796875 118.550781 92.09375 118.554688 C 93.492188 118.554688 94.890625 118.554688 96.289062 118.554688 C 98.710938 118.554688 101.132812 118.554688 103.558594 118.558594 C 107.058594 118.5625 110.5625 118.5625 114.066406 118.5625 C 119.75 118.5625 125.433594 118.566406 131.117188 118.570312 C 136.640625 118.574219 142.164062 118.578125 147.683594 118.578125 C 148.023438 118.578125 148.367188 118.582031 148.714844 118.582031 C 150.421875 118.582031 152.128906 118.582031 153.835938 118.582031 C 168 118.585938 182.167969 118.59375 196.332031 118.605469 C 196.332031 120.660156 195.648438 121.84375 194.746094 123.578125 C 190.269531 132.476562 186.992188 142.214844 185.21875 152.167969 C 185.148438 152.554688 185.074219 152.9375 185 153.332031 C 182.628906 166.304688 182.785156 180.109375 185.21875 193.050781 C 185.28125 193.394531 185.339844 193.742188 185.40625 194.097656 C 188.292969 210.078125 195.253906 225.199219 204.667969 237.804688 C 204.832031 238.03125 205 238.253906 205.167969 238.484375 C 209.355469 244.117188 214.035156 249.351562 219.355469 253.730469 C 219.679688 254 219.679688 254 220.015625 254.28125 C 225.671875 258.957031 231.566406 262.9375 238.007812 266.207031 C 238.292969 266.355469 238.574219 266.5 238.867188 266.648438 C 251.4375 273.054688 264.921875 276.199219 278.792969 276.214844 C 279.097656 276.214844 279.402344 276.214844 279.71875 276.214844 C 284.945312 276.210938 290.011719 275.832031 295.164062 274.816406 C 295.480469 274.757812 295.800781 274.695312 296.128906 274.632812 C 308.839844 272.195312 321.4375 266.875 332.078125 258.894531 C 332.71875 258.417969 332.71875 258.417969 333.375 257.933594 C 336.84375 255.339844 340.042969 252.464844 343.191406 249.425781 C 343.410156 249.214844 343.628906 249.007812 343.851562 248.789062 C 346.316406 246.421875 348.621094 243.996094 350.730469 241.25 C 351.042969 240.875 351.355469 240.496094 351.675781 240.109375 C 355.539062 235.402344 358.875 230.121094 361.6875 224.605469 C 361.867188 224.257812 362.046875 223.910156 362.230469 223.550781 C 362.363281 223.285156 362.5 223.019531 362.640625 222.746094 C 362.335938 222.746094 362.03125 222.746094 361.714844 222.746094 C 354.320312 222.753906 346.925781 222.761719 339.527344 222.765625 C 335.949219 222.769531 332.375 222.773438 328.796875 222.777344 C 325.679688 222.78125 322.5625 222.785156 319.445312 222.785156 C 317.796875 222.785156 316.144531 222.785156 314.492188 222.789062 C 312.941406 222.792969 311.390625 222.792969 309.835938 222.792969 C 309.265625 222.792969 308.695312 222.792969 308.121094 222.796875 C 307.347656 222.796875 306.570312 222.796875 305.792969 222.796875 C 305.355469 222.796875 304.921875 222.796875 304.472656 222.796875 C 303.5 222.746094 303.5 222.746094 303.101562 222.3125 C 303.0625 221.664062 303.050781 221.007812 303.050781 220.355469 C 303.050781 219.929688 303.050781 219.507812 303.046875 219.070312 C 303.050781 218.601562 303.050781 218.132812 303.050781 217.648438 C 303.050781 217.160156 303.050781 216.667969 303.046875 216.164062 C 303.046875 214.535156 303.046875 212.902344 303.050781 211.273438 C 303.050781 210.144531 303.046875 209.019531 303.046875 207.890625 C 303.046875 205.527344 303.046875 203.160156 303.050781 200.792969 C 303.050781 198.054688 303.050781 195.316406 303.050781 192.578125 C 303.046875 189.945312 303.046875 187.316406 303.050781 184.6875 C 303.050781 183.566406 303.046875 182.445312 303.046875 181.320312 C 303.046875 179.757812 303.046875 178.195312 303.050781 176.628906 C 303.050781 176.160156 303.050781 175.691406 303.046875 175.207031 C 303.050781 174.785156 303.050781 174.363281 303.050781 173.925781 C 303.050781 173.554688 303.050781 173.183594 303.050781 172.804688 C 303.101562 171.964844 303.101562 171.964844 303.5 171.535156 C 304.128906 171.492188 304.757812 171.480469 305.386719 171.480469 C 305.796875 171.480469 306.210938 171.476562 306.632812 171.476562 C 307.089844 171.476562 307.546875 171.480469 308.019531 171.480469 C 308.5 171.480469 308.980469 171.476562 309.476562 171.476562 C 310.820312 171.476562 312.164062 171.476562 313.507812 171.476562 C 314.953125 171.480469 316.394531 171.476562 317.839844 171.476562 C 320.675781 171.472656 323.507812 171.476562 326.34375 171.476562 C 328.644531 171.476562 330.949219 171.476562 333.25 171.476562 C 333.578125 171.476562 333.902344 171.476562 334.238281 171.476562 C 334.90625 171.476562 335.566406 171.476562 336.234375 171.476562 C 342.46875 171.476562 348.703125 171.476562 354.941406 171.480469 C 360.296875 171.480469 365.652344 171.480469 371.007812 171.476562 C 377.222656 171.476562 383.433594 171.476562 389.648438 171.476562 C 390.308594 171.476562 390.96875 171.476562 391.632812 171.476562 C 392.121094 171.476562 392.121094 171.476562 392.617188 171.476562 C 394.917969 171.476562 397.21875 171.476562 399.519531 171.476562 C 402.324219 171.472656 405.125 171.476562 407.925781 171.476562 C 409.355469 171.476562 410.789062 171.480469 412.21875 171.476562 C 413.765625 171.476562 415.316406 171.476562 416.863281 171.480469 C 417.320312 171.480469 417.777344 171.476562 418.246094 171.476562 C 418.65625 171.476562 419.070312 171.480469 419.492188 171.480469 C 419.851562 171.480469 420.210938 171.480469 420.578125 171.480469 C 421.382812 171.535156 421.382812 171.535156 421.777344 171.964844 C 421.894531 173.898438 421.875 175.839844 421.878906 177.773438 C 421.878906 178.210938 421.878906 178.210938 421.878906 178.65625 C 421.871094 184.386719 421.421875 189.972656 420.589844 195.632812 C 420.488281 196.332031 420.488281 196.332031 420.382812 197.046875 C 417.011719 219.5 409.347656 241.5625 397.171875 260.183594 C 396.902344 260.59375 396.636719 261.003906 396.359375 261.429688 C 395.585938 262.601562 394.792969 263.761719 393.996094 264.917969 C 393.695312 265.355469 393.394531 265.789062 393.082031 266.238281 C 386.113281 276.265625 378.097656 285.550781 368.988281 293.320312 C 368.464844 293.777344 367.9375 294.238281 367.410156 294.699219 C 347.597656 311.867188 323.421875 322.632812 298.363281 326.402344 C 298.066406 326.445312 297.773438 326.492188 297.46875 326.539062 C 291.433594 327.429688 285.429688 327.835938 279.335938 327.828125 C 279.054688 327.828125 278.773438 327.828125 278.480469 327.824219 C 273.164062 327.8125 267.902344 327.542969 262.617188 326.886719 C 262.203125 326.835938 261.789062 326.785156 261.363281 326.730469 C 248.691406 325.097656 236.261719 321.515625 224.511719 316.128906 C 224.261719 316.011719 224.007812 315.898438 223.746094 315.777344 C 219.683594 313.921875 215.71875 311.886719 211.8125 309.671875 C 211.539062 309.519531 211.269531 309.367188 210.992188 309.210938 C 207.085938 307 203.378906 304.515625 199.707031 301.871094 C 199.3125 301.589844 198.917969 301.308594 198.515625 301.015625 C 196.277344 299.382812 194.140625 297.671875 192.054688 295.820312 C 191.179688 295.046875 190.285156 294.300781 189.386719 293.5625 C 187.746094 292.1875 186.210938 290.710938 184.683594 289.191406 C 183.851562 288.375 183.007812 287.574219 182.160156 286.78125 C 180.242188 284.972656 178.453125 283.035156 176.660156 281.082031 C 176.339844 280.734375 176.015625 280.386719 175.683594 280.027344 C 173.753906 277.929688 171.902344 275.789062 170.136719 273.523438 C 169.929688 273.261719 169.726562 273 169.515625 272.726562 C 164.464844 266.203125 160.066406 259.28125 155.953125 252.03125 C 155.535156 251.296875 155.113281 250.5625 154.6875 249.832031 C 150.382812 242.171875 147.230469 233.703125 144.335938 225.328125 C 144.125 224.714844 144.125 224.714844 143.90625 224.089844 C 138.613281 208.574219 135.863281 191.554688 135.976562 175.03125 C 135.980469 174.523438 135.980469 174.019531 135.984375 173.496094 C 135.988281 172.269531 135.992188 171.039062 136 169.8125 C 135.503906 169.828125 135.503906 169.828125 135 169.839844 C 119.710938 170.203125 107.15625 166.863281 95.664062 155.339844 C 87.53125 146.535156 82.074219 134.027344 81.949219 121.507812 C 81.964844 118.636719 81.964844 118.636719 83.199219 118.550781 Z M 83.199219 118.550781 " fill-opacity="1" fill-rule="nonzero"/><g clip-path="url(#d2d2496234)"><path fill="#4fbf8b" d="M 39.582031 17.410156 C 39.933594 17.410156 40.285156 17.410156 40.648438 17.40625 C 41.234375 17.410156 41.234375 17.410156 41.832031 17.410156 C 42.246094 17.410156 42.660156 17.410156 43.085938 17.40625 C 44.492188 17.40625 45.894531 17.40625 47.300781 17.40625 C 48.308594 17.40625 49.320312 17.40625 50.328125 17.40625 C 52.535156 17.402344 54.738281 17.402344 56.945312 17.402344 C 60.222656 17.402344 63.503906 17.402344 66.78125 17.398438 C 72.980469 17.394531 79.183594 17.394531 85.382812 17.394531 C 90.175781 17.394531 94.964844 17.390625 99.757812 17.390625 C 101.136719 17.390625 102.515625 17.390625 103.894531 17.390625 C 104.234375 17.390625 104.578125 17.390625 104.933594 17.390625 C 114.578125 17.386719 124.226562 17.386719 133.875 17.386719 C 134.238281 17.386719 134.601562 17.386719 134.976562 17.386719 C 136.824219 17.386719 138.667969 17.386719 140.511719 17.386719 C 140.878906 17.386719 141.246094 17.386719 141.625 17.386719 C 142.363281 17.386719 143.105469 17.386719 143.847656 17.386719 C 155.359375 17.386719 166.871094 17.382812 178.382812 17.375 C 191.3125 17.371094 204.246094 17.367188 217.179688 17.367188 C 218.5625 17.367188 219.941406 17.367188 221.324219 17.367188 C 221.664062 17.367188 222.003906 17.367188 222.355469 17.367188 C 227.816406 17.367188 233.273438 17.363281 238.730469 17.359375 C 244.230469 17.355469 249.726562 17.355469 255.226562 17.359375 C 258.484375 17.359375 261.746094 17.359375 265.003906 17.355469 C 267.449219 17.351562 269.894531 17.355469 272.339844 17.359375 C 273.320312 17.359375 274.300781 17.359375 275.285156 17.355469 C 283.992188 17.335938 292.652344 17.808594 301.265625 19.265625 C 301.535156 19.3125 301.804688 19.359375 302.082031 19.402344 C 316.320312 21.808594 330.222656 26.710938 343.015625 33.914062 C 344.222656 34.589844 345.4375 35.226562 346.664062 35.863281 C 356.953125 41.464844 366.085938 49.089844 374.695312 57.304688 C 375.265625 57.847656 375.84375 58.378906 376.417969 58.910156 C 376.710938 59.175781 377 59.445312 377.300781 59.71875 C 377.660156 60.046875 377.660156 60.046875 378.03125 60.382812 C 378.515625 60.929688 378.515625 60.929688 378.515625 61.789062 C 378.871094 61.960938 378.871094 61.960938 379.234375 62.140625 C 380.101562 62.648438 380.664062 63.121094 381.292969 63.941406 C 381.292969 64.226562 381.292969 64.507812 381.292969 64.800781 C 381.53125 64.914062 381.769531 65.03125 382.015625 65.148438 C 382.925781 65.6875 383.386719 66.171875 384.046875 67.035156 C 384.976562 68.226562 385.90625 69.414062 386.859375 70.585938 C 395.109375 80.738281 402.09375 92.179688 407.5 104.378906 C 407.898438 105.277344 408.300781 106.171875 408.703125 107.070312 C 410.066406 110.121094 411.34375 113.199219 412.476562 116.363281 C 412.632812 116.789062 412.632812 116.789062 412.792969 117.226562 C 413.316406 118.75 413.488281 119.632812 413.046875 121.175781 C 406.519531 121.386719 399.992188 121.546875 393.460938 121.644531 C 390.429688 121.691406 387.398438 121.753906 384.367188 121.859375 C 381.722656 121.949219 379.078125 122.007812 376.433594 122.027344 C 375.03125 122.039062 373.636719 122.066406 372.238281 122.132812 C 363.769531 122.519531 363.769531 122.519531 361.242188 120.300781 C 359.507812 118.164062 358.324219 115.796875 357.203125 113.238281 C 356.4375 111.613281 355.445312 110.234375 354.378906 108.832031 C 354.203125 108.59375 354.027344 108.359375 353.847656 108.113281 C 351.632812 105.152344 349.28125 102.316406 346.761719 99.660156 C 344.777344 97.507812 344.777344 97.507812 344.1875 96.839844 C 329.359375 80.226562 305.558594 69.699219 284.378906 69.082031 C 281.890625 69.039062 279.398438 69.042969 276.90625 69.046875 C 276.058594 69.046875 275.214844 69.042969 274.367188 69.042969 C 272.042969 69.039062 269.722656 69.039062 267.402344 69.039062 C 264.898438 69.039062 262.390625 69.035156 259.886719 69.03125 C 255.828125 69.027344 251.769531 69.023438 247.710938 69.019531 C 240.855469 69.015625 234.003906 69.007812 227.148438 69 C 224.507812 68.996094 221.867188 68.992188 219.226562 68.988281 C 218.933594 68.988281 218.640625 68.988281 218.339844 68.984375 C 211.363281 68.976562 204.386719 68.96875 197.410156 68.960938 C 197.105469 68.960938 196.800781 68.960938 196.484375 68.960938 C 189.367188 68.949219 182.25 68.945312 175.132812 68.9375 C 174.675781 68.9375 174.675781 68.9375 174.207031 68.9375 C 171.738281 68.9375 169.273438 68.933594 166.804688 68.933594 C 156.625 68.925781 146.441406 68.914062 136.261719 68.894531 C 134.820312 68.894531 133.382812 68.890625 131.941406 68.890625 C 131.660156 68.890625 131.375 68.886719 131.085938 68.886719 C 126.535156 68.882812 121.988281 68.878906 117.441406 68.878906 C 112.867188 68.878906 108.289062 68.871094 103.714844 68.863281 C 101.238281 68.855469 98.765625 68.855469 96.289062 68.855469 C 94.019531 68.859375 91.75 68.855469 89.480469 68.847656 C 88.660156 68.84375 87.84375 68.84375 87.023438 68.847656 C 73.332031 68.886719 61.390625 64.433594 51.457031 54.042969 C 51.03125 53.621094 51.03125 53.621094 50.59375 53.1875 C 46.328125 48.851562 43.523438 43.402344 41.140625 37.691406 C 40.945312 37.246094 40.753906 36.800781 40.558594 36.34375 C 39.398438 33.410156 38.777344 30.433594 38.238281 27.308594 C 38.167969 26.917969 38.101562 26.527344 38.03125 26.128906 C 37.59375 23.390625 37.378906 20.671875 37.566406 17.894531 C 38.175781 17.234375 38.730469 17.410156 39.582031 17.410156 Z M 39.582031 17.410156 " fill-opacity="1" fill-rule="nonzero"/></g><g fill="#2b3441" fill-opacity="1"><g transform="translate(447.795897, 269.229054)"><g><path d="M 16.328125 0 L 16.328125 -139.609375 L 64.5 -139.609375 L 64.5 -119.46875 L 65.046875 -119.46875 C 65.398438 -120.195312 65.984375 -121.101562 66.796875 -122.1875 C 67.617188 -123.28125 69.390625 -125.1875 72.109375 -127.90625 C 74.835938 -130.625 77.742188 -133.070312 80.828125 -135.25 C 83.910156 -137.425781 87.898438 -139.375 92.796875 -141.09375 C 97.691406 -142.820312 102.679688 -143.6875 107.765625 -143.6875 C 113.023438 -143.6875 118.195312 -142.960938 123.28125 -141.515625 C 128.363281 -140.066406 132.082031 -138.613281 134.4375 -137.15625 L 138.25 -134.984375 L 118.109375 -94.15625 C 112.117188 -99.238281 103.773438 -101.78125 93.078125 -101.78125 C 87.265625 -101.78125 82.269531 -100.507812 78.09375 -97.96875 C 73.925781 -95.425781 70.976562 -92.34375 69.25 -88.71875 C 67.53125 -85.09375 66.304688 -82.007812 65.578125 -79.46875 C 64.859375 -76.925781 64.5 -74.929688 64.5 -73.484375 L 64.5 0 Z M 16.328125 0 "/></g></g></g><g fill="#2b3441" fill-opacity="1"><g transform="translate(581.68594, 269.229054)"><g><path d="M 157.5625 -63.140625 L 56.328125 -63.140625 C 56.328125 -53.335938 59.503906 -46.078125 65.859375 -41.359375 C 72.210938 -36.648438 79.109375 -34.296875 86.546875 -34.296875 C 94.347656 -34.296875 100.515625 -35.335938 105.046875 -37.421875 C 109.578125 -39.503906 114.75 -43.628906 120.5625 -49.796875 L 155.390625 -32.390625 C 140.878906 -8.078125 116.75 4.078125 83 4.078125 C 61.957031 4.078125 43.90625 -3.128906 28.84375 -17.546875 C 13.789062 -31.972656 6.265625 -49.34375 6.265625 -69.65625 C 6.265625 -89.976562 13.789062 -107.394531 28.84375 -121.90625 C 43.90625 -136.425781 61.957031 -143.6875 83 -143.6875 C 105.132812 -143.6875 123.140625 -137.289062 137.015625 -124.5 C 150.898438 -111.707031 157.84375 -93.429688 157.84375 -69.671875 C 157.84375 -66.398438 157.75 -64.222656 157.5625 -63.140625 Z M 57.6875 -89.8125 L 110.765625 -89.8125 C 109.671875 -97.0625 106.8125 -102.632812 102.1875 -106.53125 C 97.5625 -110.4375 91.617188 -112.390625 84.359375 -112.390625 C 76.378906 -112.390625 70.03125 -110.300781 65.3125 -106.125 C 60.59375 -101.957031 58.050781 -96.519531 57.6875 -89.8125 Z M 57.6875 -89.8125 "/></g></g></g><g fill="#2b3441" fill-opacity="1"><g transform="translate(745.782928, 269.229054)"><g><path d="M 157.5625 -63.140625 L 56.328125 -63.140625 C 56.328125 -53.335938 59.503906 -46.078125 65.859375 -41.359375 C 72.210938 -36.648438 79.109375 -34.296875 86.546875 -34.296875 C 94.347656 -34.296875 100.515625 -35.335938 105.046875 -37.421875 C 109.578125 -39.503906 114.75 -43.628906 120.5625 -49.796875 L 155.390625 -32.390625 C 140.878906 -8.078125 116.75 4.078125 83 4.078125 C 61.957031 4.078125 43.90625 -3.128906 28.84375 -17.546875 C 13.789062 -31.972656 6.265625 -49.34375 6.265625 -69.65625 C 6.265625 -89.976562 13.789062 -107.394531 28.84375 -121.90625 C 43.90625 -136.425781 61.957031 -143.6875 83 -143.6875 C 105.132812 -143.6875 123.140625 -137.289062 137.015625 -124.5 C 150.898438 -111.707031 157.84375 -93.429688 157.84375 -69.671875 C 157.84375 -66.398438 157.75 -64.222656 157.5625 -63.140625 Z M 57.6875 -89.8125 L 110.765625 -89.8125 C 109.671875 -97.0625 106.8125 -102.632812 102.1875 -106.53125 C 97.5625 -110.4375 91.617188 -112.390625 84.359375 -112.390625 C 76.378906 -112.390625 70.03125 -110.300781 65.3125 -106.125 C 60.59375 -101.957031 58.050781 -96.519531 57.6875 -89.8125 Z M 57.6875 -89.8125 "/></g></g></g><g fill="#2b3441" fill-opacity="1"><g transform="translate(909.335633, 269.229054)"><g><path d="M 16.328125 0 L 16.328125 -139.609375 L 64.5 -139.609375 L 64.5 -124.90625 L 65.046875 -124.90625 C 77.554688 -137.425781 90.890625 -143.6875 105.046875 -143.6875 C 111.941406 -143.6875 118.789062 -142.78125 125.59375 -140.96875 C 132.394531 -139.15625 138.925781 -136.34375 145.1875 -132.53125 C 151.445312 -128.71875 156.523438 -123.316406 160.421875 -116.328125 C 164.328125 -109.347656 166.28125 -101.234375 166.28125 -91.984375 L 166.28125 0 L 118.109375 0 L 118.109375 -78.921875 C 118.109375 -86.179688 115.796875 -92.53125 111.171875 -97.96875 C 106.546875 -103.414062 100.515625 -106.140625 93.078125 -106.140625 C 85.816406 -106.140625 79.238281 -103.328125 73.34375 -97.703125 C 67.445312 -92.078125 64.5 -85.816406 64.5 -78.921875 L 64.5 0 Z M 16.328125 0 "/></g></g></g><g fill="#2b3441" fill-opacity="1"><g transform="translate(1089.21645, 269.229054)"><g><path d="M 99.0625 -228.59375 C 111.21875 -228.59375 123.097656 -226.820312 134.703125 -223.28125 C 146.316406 -219.75 154.9375 -216.257812 160.5625 -212.8125 L 168.734375 -207.375 L 148.046875 -166.546875 C 146.410156 -167.640625 144.140625 -169.046875 141.234375 -170.765625 C 138.335938 -172.492188 132.894531 -174.804688 124.90625 -177.703125 C 116.925781 -180.609375 109.488281 -182.0625 102.59375 -182.0625 C 94.070312 -182.0625 87.492188 -180.242188 82.859375 -176.609375 C 78.234375 -172.984375 75.921875 -168.085938 75.921875 -161.921875 C 75.921875 -158.835938 77.007812 -155.976562 79.1875 -153.34375 C 81.363281 -150.71875 85.082031 -147.90625 90.34375 -144.90625 C 95.613281 -141.914062 100.242188 -139.515625 104.234375 -137.703125 C 108.222656 -135.890625 114.390625 -133.164062 122.734375 -129.53125 C 137.242188 -123.363281 149.625 -114.972656 159.875 -104.359375 C 170.132812 -93.753906 175.265625 -81.738281 175.265625 -68.3125 C 175.265625 -55.425781 172.945312 -44.175781 168.3125 -34.5625 C 163.6875 -24.945312 157.335938 -17.414062 149.265625 -11.96875 C 141.191406 -6.53125 132.253906 -2.5 122.453125 0.125 C 112.660156 2.757812 102.050781 4.078125 90.625 4.078125 C 80.820312 4.078125 71.203125 3.078125 61.765625 1.078125 C 52.335938 -0.910156 44.445312 -3.398438 38.09375 -6.390625 C 31.75 -9.390625 26.035156 -12.335938 20.953125 -15.234375 C 15.867188 -18.140625 12.148438 -20.59375 9.796875 -22.59375 L 6.265625 -25.578125 L 31.84375 -68.578125 C 34.019531 -66.765625 37.007812 -64.453125 40.8125 -61.640625 C 44.625 -58.828125 51.382812 -55.0625 61.09375 -50.34375 C 70.800781 -45.625 79.375 -43.265625 86.8125 -43.265625 C 108.40625 -43.265625 119.203125 -50.613281 119.203125 -65.3125 C 119.203125 -68.394531 118.429688 -71.25 116.890625 -73.875 C 115.347656 -76.507812 112.625 -79.140625 108.71875 -81.765625 C 104.820312 -84.398438 101.375 -86.488281 98.375 -88.03125 C 95.382812 -89.570312 90.488281 -91.929688 83.6875 -95.109375 C 76.882812 -98.285156 71.847656 -100.691406 68.578125 -102.328125 C 54.972656 -109.035156 44.453125 -117.425781 37.015625 -127.5 C 29.578125 -137.570312 25.859375 -148.410156 25.859375 -160.015625 C 25.859375 -180.148438 33.296875 -196.613281 48.171875 -209.40625 C 63.046875 -222.195312 80.007812 -228.59375 99.0625 -228.59375 Z M 99.0625 -228.59375 "/></g></g></g><g fill="#2b3441" fill-opacity="1"><g transform="translate(1272.090748, 269.229054)"><g><path d="M 16.328125 0 L 16.328125 -234.046875 L 64.5 -234.046875 L 64.5 -124.90625 L 65.046875 -124.90625 C 77.554688 -137.425781 90.890625 -143.6875 105.046875 -143.6875 C 111.941406 -143.6875 118.789062 -142.78125 125.59375 -140.96875 C 132.394531 -139.15625 138.925781 -136.34375 145.1875 -132.53125 C 151.445312 -128.71875 156.523438 -123.316406 160.421875 -116.328125 C 164.328125 -109.347656 166.28125 -101.234375 166.28125 -91.984375 L 166.28125 0 L 118.109375 0 L 118.109375 -78.921875 C 118.109375 -86.179688 115.796875 -92.53125 111.171875 -97.96875 C 106.546875 -103.414062 100.515625 -106.140625 93.078125 -106.140625 C 85.816406 -106.140625 79.238281 -103.328125 73.34375 -97.703125 C 67.445312 -92.078125 64.5 -85.816406 64.5 -78.921875 L 64.5 0 Z M 16.328125 0 "/></g></g></g><g fill="#2b3441" fill-opacity="1"><g transform="translate(1451.971564, 269.229054)"><g><path d="M 29.53125 -16.59375 C 14.019531 -30.382812 6.265625 -48.070312 6.265625 -69.65625 C 6.265625 -91.25 14.335938 -108.984375 30.484375 -122.859375 C 46.628906 -136.742188 66.582031 -143.6875 90.34375 -143.6875 C 113.75 -143.6875 133.476562 -136.703125 149.53125 -122.734375 C 165.59375 -108.765625 173.625 -91.078125 173.625 -69.671875 C 173.625 -48.265625 165.773438 -30.617188 150.078125 -16.734375 C 134.390625 -2.859375 114.476562 4.078125 90.34375 4.078125 C 65.3125 4.078125 45.039062 -2.8125 29.53125 -16.59375 Z M 66.8125 -93.34375 C 60.550781 -87.175781 57.421875 -79.285156 57.421875 -69.671875 C 57.421875 -60.054688 60.414062 -52.207031 66.40625 -46.125 C 72.394531 -40.050781 80.285156 -37.015625 90.078125 -37.015625 C 99.515625 -37.015625 107.269531 -40.097656 113.34375 -46.265625 C 119.425781 -52.429688 122.46875 -60.234375 122.46875 -69.671875 C 122.46875 -79.285156 119.335938 -87.175781 113.078125 -93.34375 C 106.816406 -99.507812 99.148438 -102.59375 90.078125 -102.59375 C 80.828125 -102.59375 73.070312 -99.507812 66.8125 -93.34375 Z M 66.8125 -93.34375 "/></g></g></g><g fill="#2b3441" fill-opacity="1"><g transform="translate(1631.308097, 269.229054)"><g><path d="M 160.015625 -122.328125 C 173.078125 -108.085938 179.609375 -90.625 179.609375 -69.9375 C 179.609375 -49.257812 173.078125 -31.753906 160.015625 -17.421875 C 146.953125 -3.085938 130.351562 4.078125 110.21875 4.078125 C 91.707031 4.078125 76.46875 -1.722656 64.5 -13.328125 L 64.5 70.75 L 16.328125 70.75 L 16.328125 -139.609375 L 63.953125 -139.609375 L 63.953125 -123.828125 L 64.5 -123.828125 C 76.46875 -137.066406 91.707031 -143.6875 110.21875 -143.6875 C 130.351562 -143.6875 146.953125 -136.566406 160.015625 -122.328125 Z M 119.0625 -46.265625 C 125.320312 -52.429688 128.453125 -60.320312 128.453125 -69.9375 C 128.453125 -79.550781 125.457031 -87.394531 119.46875 -93.46875 C 113.476562 -99.550781 105.585938 -102.59375 95.796875 -102.59375 C 86.359375 -102.59375 78.597656 -99.507812 72.515625 -93.34375 C 66.441406 -87.175781 63.40625 -79.375 63.40625 -69.9375 C 63.40625 -60.320312 66.535156 -52.429688 72.796875 -46.265625 C 79.054688 -40.097656 86.722656 -37.015625 95.796875 -37.015625 C 105.046875 -37.015625 112.800781 -40.097656 119.0625 -46.265625 Z M 119.0625 -46.265625 "/></g></g></g></svg>