<svg xmlns="http://www.w3.org/2000/svg" xmlns:xlink="http://www.w3.org/1999/xlink" width="500" zoomAndPan="magnify" viewBox="0 0 375 374.999991" height="500" preserveAspectRatio="xMidYMid meet" version="1.0"><defs><g/><clipPath id="043772a976"><path d="M 9 160 L 81 160 L 81 204.8125 L 9 204.8125 Z M 9 160 " clip-rule="nonzero"/></clipPath><clipPath id="a4bf27220f"><path d="M 0 139.523438 L 79 139.523438 L 79 162 L 0 162 Z M 0 139.523438 " clip-rule="nonzero"/></clipPath></defs><g clip-path="url(#043772a976)"><path fill="#4fbf8b" d="M 9.523438 160.605469 C 9.59375 160.605469 9.664062 160.605469 9.738281 160.605469 C 9.863281 160.605469 9.863281 160.605469 9.992188 160.605469 C 10.128906 160.605469 10.128906 160.605469 10.269531 160.605469 C 10.367188 160.605469 10.464844 160.605469 10.5625 160.605469 C 10.835938 160.605469 11.105469 160.605469 11.375 160.609375 C 11.667969 160.609375 11.957031 160.609375 12.25 160.609375 C 12.753906 160.609375 13.257812 160.609375 13.761719 160.609375 C 14.492188 160.609375 15.222656 160.609375 15.953125 160.609375 C 17.136719 160.609375 18.320312 160.609375 19.503906 160.609375 C 20.65625 160.613281 21.808594 160.613281 22.957031 160.613281 C 23.027344 160.613281 23.097656 160.613281 23.171875 160.613281 C 23.527344 160.613281 23.882812 160.613281 24.238281 160.613281 C 27.191406 160.613281 30.140625 160.617188 33.09375 160.617188 C 33.09375 161.046875 32.949219 161.292969 32.761719 161.65625 C 31.828125 163.507812 31.148438 165.539062 30.777344 167.609375 C 30.761719 167.691406 30.746094 167.769531 30.730469 167.855469 C 30.238281 170.554688 30.269531 173.433594 30.777344 176.128906 C 30.789062 176.199219 30.804688 176.273438 30.816406 176.347656 C 31.417969 179.675781 32.867188 182.828125 34.828125 185.453125 C 34.863281 185.5 34.898438 185.546875 34.933594 185.59375 C 35.804688 186.769531 36.78125 187.859375 37.890625 188.769531 C 37.957031 188.828125 37.957031 188.828125 38.027344 188.886719 C 39.207031 189.859375 40.433594 190.691406 41.777344 191.371094 C 41.835938 191.402344 41.894531 191.429688 41.953125 191.460938 C 44.574219 192.796875 47.382812 193.453125 50.273438 193.457031 C 50.335938 193.457031 50.398438 193.457031 50.464844 193.457031 C 51.554688 193.453125 52.609375 193.375 53.683594 193.164062 C 53.75 193.152344 53.816406 193.140625 53.886719 193.125 C 56.535156 192.617188 59.15625 191.507812 61.375 189.847656 C 61.507812 189.746094 61.507812 189.746094 61.644531 189.648438 C 62.367188 189.105469 63.035156 188.507812 63.691406 187.875 C 63.734375 187.832031 63.78125 187.785156 63.828125 187.742188 C 64.339844 187.25 64.820312 186.742188 65.261719 186.171875 C 65.324219 186.09375 65.390625 186.015625 65.457031 185.933594 C 66.261719 184.953125 66.957031 183.851562 67.542969 182.703125 C 67.582031 182.628906 67.617188 182.558594 67.65625 182.484375 C 67.683594 182.429688 67.714844 182.371094 67.742188 182.316406 C 67.679688 182.316406 67.617188 182.316406 67.550781 182.316406 C 66.007812 182.316406 64.46875 182.320312 62.925781 182.320312 C 62.179688 182.320312 61.4375 182.320312 60.691406 182.320312 C 60.042969 182.324219 59.394531 182.324219 58.742188 182.324219 C 58.398438 182.324219 58.054688 182.324219 57.710938 182.324219 C 57.386719 182.324219 57.0625 182.324219 56.742188 182.324219 C 56.621094 182.324219 56.503906 182.324219 56.382812 182.324219 C 56.222656 182.328125 56.058594 182.328125 55.898438 182.324219 C 55.808594 182.328125 55.714844 182.328125 55.625 182.328125 C 55.421875 182.316406 55.421875 182.316406 55.335938 182.226562 C 55.328125 182.089844 55.328125 181.953125 55.328125 181.816406 C 55.328125 181.730469 55.328125 181.640625 55.328125 181.550781 C 55.328125 181.453125 55.328125 181.355469 55.328125 181.253906 C 55.328125 181.152344 55.328125 181.050781 55.328125 180.945312 C 55.328125 180.605469 55.328125 180.265625 55.328125 179.925781 C 55.328125 179.691406 55.328125 179.457031 55.328125 179.222656 C 55.328125 178.726562 55.328125 178.234375 55.328125 177.742188 C 55.328125 177.171875 55.328125 176.601562 55.328125 176.03125 C 55.328125 175.480469 55.328125 174.933594 55.328125 174.386719 C 55.328125 174.152344 55.328125 173.917969 55.328125 173.683594 C 55.328125 173.359375 55.328125 173.035156 55.328125 172.707031 C 55.328125 172.609375 55.328125 172.511719 55.328125 172.410156 C 55.328125 172.324219 55.328125 172.234375 55.328125 172.144531 C 55.328125 172.066406 55.328125 171.988281 55.328125 171.910156 C 55.335938 171.734375 55.335938 171.734375 55.421875 171.644531 C 55.550781 171.636719 55.683594 171.632812 55.8125 171.632812 C 55.898438 171.632812 55.984375 171.632812 56.074219 171.632812 C 56.167969 171.632812 56.265625 171.632812 56.363281 171.632812 C 56.460938 171.632812 56.5625 171.632812 56.667969 171.632812 C 56.945312 171.632812 57.226562 171.632812 57.503906 171.632812 C 57.804688 171.632812 58.109375 171.632812 58.410156 171.632812 C 59 171.632812 59.589844 171.632812 60.179688 171.632812 C 60.660156 171.632812 61.140625 171.632812 61.617188 171.632812 C 61.6875 171.632812 61.753906 171.632812 61.824219 171.632812 C 61.964844 171.632812 62.101562 171.632812 62.242188 171.632812 C 63.539062 171.632812 64.839844 171.632812 66.136719 171.632812 C 67.253906 171.632812 68.371094 171.632812 69.484375 171.632812 C 70.78125 171.632812 72.074219 171.632812 73.371094 171.632812 C 73.507812 171.632812 73.644531 171.632812 73.78125 171.632812 C 73.882812 171.632812 73.882812 171.632812 73.988281 171.632812 C 74.46875 171.632812 74.945312 171.632812 75.425781 171.632812 C 76.011719 171.632812 76.59375 171.632812 77.175781 171.632812 C 77.476562 171.632812 77.773438 171.632812 78.070312 171.632812 C 78.394531 171.632812 78.71875 171.632812 79.039062 171.632812 C 79.132812 171.632812 79.230469 171.632812 79.328125 171.632812 C 79.414062 171.632812 79.5 171.632812 79.585938 171.632812 C 79.660156 171.632812 79.738281 171.632812 79.8125 171.632812 C 79.980469 171.644531 79.980469 171.644531 80.0625 171.734375 C 80.089844 172.136719 80.085938 172.542969 80.085938 172.945312 C 80.085938 173.039062 80.085938 173.039062 80.085938 173.128906 C 80.082031 174.324219 79.988281 175.488281 79.816406 176.667969 C 79.792969 176.8125 79.792969 176.8125 79.773438 176.960938 C 79.070312 181.640625 77.472656 186.234375 74.9375 190.117188 C 74.882812 190.199219 74.824219 190.285156 74.769531 190.375 C 74.605469 190.621094 74.441406 190.859375 74.273438 191.101562 C 74.210938 191.191406 74.148438 191.285156 74.085938 191.378906 C 72.632812 193.464844 70.964844 195.402344 69.066406 197.019531 C 68.957031 197.113281 68.847656 197.210938 68.738281 197.308594 C 64.609375 200.882812 59.570312 203.125 54.351562 203.910156 C 54.289062 203.921875 54.226562 203.929688 54.164062 203.941406 C 52.90625 204.125 51.65625 204.210938 50.386719 204.207031 C 50.328125 204.207031 50.269531 204.207031 50.207031 204.207031 C 49.101562 204.207031 48.003906 204.148438 46.902344 204.011719 C 46.816406 204.003906 46.730469 203.992188 46.640625 203.980469 C 44 203.640625 41.414062 202.894531 38.964844 201.769531 C 38.910156 201.746094 38.859375 201.722656 38.804688 201.699219 C 37.957031 201.3125 37.132812 200.886719 36.316406 200.425781 C 36.261719 200.394531 36.207031 200.363281 36.148438 200.332031 C 35.332031 199.871094 34.558594 199.351562 33.796875 198.800781 C 33.714844 198.742188 33.632812 198.683594 33.546875 198.625 C 33.082031 198.28125 32.636719 197.925781 32.203125 197.539062 C 32.019531 197.378906 31.832031 197.222656 31.644531 197.070312 C 31.304688 196.785156 30.984375 196.476562 30.664062 196.160156 C 30.492188 195.988281 30.316406 195.824219 30.140625 195.65625 C 29.742188 195.28125 29.367188 194.875 28.996094 194.46875 C 28.925781 194.398438 28.859375 194.324219 28.789062 194.25 C 28.386719 193.8125 28.003906 193.367188 27.636719 192.894531 C 27.59375 192.839844 27.550781 192.785156 27.503906 192.730469 C 26.453125 191.371094 25.539062 189.925781 24.679688 188.417969 C 24.59375 188.265625 24.503906 188.109375 24.417969 187.957031 C 23.519531 186.363281 22.863281 184.597656 22.257812 182.851562 C 22.214844 182.726562 22.214844 182.726562 22.171875 182.59375 C 21.066406 179.363281 20.496094 175.816406 20.519531 172.375 C 20.519531 172.269531 20.519531 172.164062 20.519531 172.054688 C 20.519531 171.796875 20.519531 171.542969 20.523438 171.289062 C 20.417969 171.289062 20.417969 171.289062 20.3125 171.292969 C 17.128906 171.367188 14.511719 170.671875 12.117188 168.269531 C 10.425781 166.4375 9.289062 163.832031 9.261719 161.222656 C 9.265625 160.625 9.265625 160.625 9.523438 160.605469 Z M 9.523438 160.605469 " fill-opacity="1" fill-rule="nonzero"/></g><g clip-path="url(#a4bf27220f)"><path fill="#4fbf8b" d="M 0.433594 139.535156 C 0.507812 139.535156 0.582031 139.535156 0.65625 139.535156 C 0.777344 139.535156 0.777344 139.535156 0.902344 139.535156 C 0.988281 139.535156 1.074219 139.535156 1.164062 139.535156 C 1.457031 139.535156 1.75 139.535156 2.042969 139.535156 C 2.253906 139.535156 2.464844 139.535156 2.671875 139.535156 C 3.132812 139.53125 3.59375 139.53125 4.050781 139.53125 C 4.734375 139.53125 5.417969 139.53125 6.101562 139.53125 C 7.394531 139.53125 8.683594 139.53125 9.976562 139.53125 C 10.976562 139.53125 11.972656 139.53125 12.972656 139.53125 C 13.257812 139.53125 13.546875 139.53125 13.832031 139.53125 C 13.90625 139.53125 13.976562 139.53125 14.050781 139.53125 C 16.058594 139.53125 18.070312 139.53125 20.078125 139.53125 C 20.15625 139.53125 20.230469 139.53125 20.308594 139.53125 C 20.695312 139.53125 21.078125 139.53125 21.464844 139.53125 C 21.539062 139.53125 21.617188 139.53125 21.695312 139.53125 C 21.847656 139.53125 22.003906 139.53125 22.15625 139.53125 C 24.554688 139.53125 26.953125 139.527344 29.351562 139.527344 C 32.046875 139.527344 34.742188 139.527344 37.4375 139.527344 C 37.722656 139.527344 38.011719 139.527344 38.300781 139.527344 C 38.371094 139.527344 38.441406 139.527344 38.515625 139.527344 C 39.652344 139.527344 40.789062 139.523438 41.925781 139.523438 C 43.070312 139.523438 44.21875 139.523438 45.363281 139.523438 C 46.042969 139.523438 46.722656 139.523438 47.398438 139.523438 C 47.910156 139.523438 48.417969 139.523438 48.929688 139.523438 C 49.132812 139.523438 49.335938 139.523438 49.542969 139.523438 C 51.355469 139.519531 53.160156 139.617188 54.957031 139.921875 C 55.011719 139.929688 55.066406 139.941406 55.125 139.949219 C 58.089844 140.449219 60.988281 141.472656 63.652344 142.972656 C 63.90625 143.113281 64.160156 143.246094 64.414062 143.378906 C 66.558594 144.546875 68.460938 146.136719 70.253906 147.847656 C 70.371094 147.960938 70.492188 148.070312 70.613281 148.179688 C 70.675781 148.238281 70.734375 148.292969 70.796875 148.347656 C 70.871094 148.417969 70.871094 148.417969 70.949219 148.488281 C 71.050781 148.601562 71.050781 148.601562 71.050781 148.78125 C 71.125 148.816406 71.125 148.816406 71.199219 148.855469 C 71.378906 148.960938 71.496094 149.058594 71.628906 149.230469 C 71.628906 149.289062 71.628906 149.347656 71.628906 149.410156 C 71.679688 149.433594 71.726562 149.457031 71.777344 149.480469 C 71.96875 149.59375 72.066406 149.695312 72.203125 149.875 C 72.394531 150.121094 72.589844 150.371094 72.789062 150.613281 C 74.507812 152.730469 75.960938 155.113281 77.089844 157.65625 C 77.171875 157.839844 77.253906 158.027344 77.339844 158.214844 C 77.625 158.851562 77.890625 159.492188 78.125 160.152344 C 78.15625 160.238281 78.15625 160.238281 78.191406 160.332031 C 78.300781 160.648438 78.335938 160.832031 78.246094 161.152344 C 76.882812 161.199219 75.523438 161.230469 74.164062 161.25 C 73.53125 161.261719 72.902344 161.273438 72.269531 161.296875 C 71.71875 161.316406 71.167969 161.328125 70.617188 161.332031 C 70.324219 161.332031 70.035156 161.339844 69.742188 161.351562 C 67.976562 161.433594 67.976562 161.433594 67.453125 160.972656 C 67.089844 160.527344 66.84375 160.035156 66.609375 159.5 C 66.449219 159.160156 66.242188 158.875 66.019531 158.582031 C 65.984375 158.53125 65.949219 158.484375 65.910156 158.433594 C 65.449219 157.816406 64.960938 157.226562 64.433594 156.671875 C 64.019531 156.222656 64.019531 156.222656 63.898438 156.082031 C 60.808594 152.621094 55.851562 150.429688 51.4375 150.300781 C 50.917969 150.292969 50.398438 150.292969 49.878906 150.292969 C 49.703125 150.292969 49.527344 150.292969 49.351562 150.292969 C 48.867188 150.292969 48.382812 150.292969 47.898438 150.292969 C 47.378906 150.289062 46.855469 150.289062 46.335938 150.289062 C 45.488281 150.289062 44.644531 150.289062 43.796875 150.289062 C 42.371094 150.285156 40.941406 150.285156 39.511719 150.28125 C 38.964844 150.28125 38.414062 150.28125 37.863281 150.28125 C 37.800781 150.28125 37.742188 150.28125 37.679688 150.28125 C 36.222656 150.277344 34.769531 150.277344 33.316406 150.273438 C 33.253906 150.273438 33.191406 150.273438 33.125 150.273438 C 31.640625 150.273438 30.160156 150.269531 28.675781 150.269531 C 28.582031 150.269531 28.582031 150.269531 28.484375 150.269531 C 27.96875 150.269531 27.453125 150.269531 26.941406 150.269531 C 24.820312 150.265625 22.699219 150.265625 20.578125 150.261719 C 20.277344 150.261719 19.976562 150.261719 19.675781 150.261719 C 19.617188 150.261719 19.558594 150.261719 19.5 150.261719 C 18.550781 150.257812 17.601562 150.257812 16.65625 150.257812 C 15.703125 150.257812 14.75 150.257812 13.796875 150.253906 C 13.28125 150.253906 12.765625 150.253906 12.25 150.253906 C 11.777344 150.253906 11.304688 150.253906 10.828125 150.25 C 10.660156 150.25 10.488281 150.25 10.320312 150.25 C 7.464844 150.257812 4.976562 149.332031 2.910156 147.167969 C 2.820312 147.078125 2.820312 147.078125 2.726562 146.988281 C 1.839844 146.085938 1.253906 144.949219 0.757812 143.761719 C 0.71875 143.667969 0.679688 143.574219 0.636719 143.480469 C 0.394531 142.867188 0.265625 142.246094 0.152344 141.597656 C 0.140625 141.515625 0.125 141.433594 0.109375 141.351562 C 0.0195312 140.78125 -0.0234375 140.214844 0.015625 139.636719 C 0.140625 139.496094 0.257812 139.535156 0.433594 139.535156 Z M 0.433594 139.535156 " fill-opacity="1" fill-rule="nonzero"/></g><g fill="#2b3441" fill-opacity="1"><g transform="translate(85.484284, 192.000225)"><g><path d="M 3.40625 0 L 3.40625 -29.09375 L 13.4375 -29.09375 L 13.4375 -24.890625 L 13.546875 -24.890625 C 13.628906 -25.046875 13.753906 -25.234375 13.921875 -25.453125 C 14.085938 -25.679688 14.453125 -26.078125 15.015625 -26.640625 C 15.585938 -27.210938 16.195312 -27.722656 16.84375 -28.171875 C 17.488281 -28.628906 18.316406 -29.035156 19.328125 -29.390625 C 20.347656 -29.753906 21.390625 -29.9375 22.453125 -29.9375 C 23.546875 -29.9375 24.625 -29.785156 25.6875 -29.484375 C 26.75 -29.179688 27.523438 -28.878906 28.015625 -28.578125 L 28.8125 -28.125 L 24.609375 -19.625 C 23.359375 -20.675781 21.617188 -21.203125 19.390625 -21.203125 C 18.179688 -21.203125 17.140625 -20.9375 16.265625 -20.40625 C 15.398438 -19.882812 14.785156 -19.242188 14.421875 -18.484375 C 14.066406 -17.722656 13.8125 -17.078125 13.65625 -16.546875 C 13.507812 -16.023438 13.4375 -15.613281 13.4375 -15.3125 L 13.4375 0 Z M 3.40625 0 "/></g></g></g><g fill="#2b3441" fill-opacity="1"><g transform="translate(113.379829, 192.000225)"><g><path d="M 32.828125 -13.15625 L 11.734375 -13.15625 C 11.734375 -11.113281 12.394531 -9.597656 13.71875 -8.609375 C 15.039062 -7.628906 16.476562 -7.140625 18.03125 -7.140625 C 19.65625 -7.140625 20.941406 -7.359375 21.890625 -7.796875 C 22.835938 -8.234375 23.914062 -9.09375 25.125 -10.375 L 32.375 -6.75 C 29.351562 -1.6875 24.328125 0.84375 17.296875 0.84375 C 12.910156 0.84375 9.144531 -0.65625 6 -3.65625 C 2.863281 -6.664062 1.296875 -10.285156 1.296875 -14.515625 C 1.296875 -18.742188 2.863281 -22.367188 6 -25.390625 C 9.144531 -28.421875 12.910156 -29.9375 17.296875 -29.9375 C 21.910156 -29.9375 25.660156 -28.601562 28.546875 -25.9375 C 31.441406 -23.269531 32.890625 -19.460938 32.890625 -14.515625 C 32.890625 -13.835938 32.867188 -13.382812 32.828125 -13.15625 Z M 12.015625 -18.71875 L 23.078125 -18.71875 C 22.847656 -20.226562 22.25 -21.390625 21.28125 -22.203125 C 20.320312 -23.015625 19.085938 -23.421875 17.578125 -23.421875 C 15.910156 -23.421875 14.585938 -22.984375 13.609375 -22.109375 C 12.628906 -21.242188 12.097656 -20.113281 12.015625 -18.71875 Z M 12.015625 -18.71875 "/></g></g></g><g fill="#2b3441" fill-opacity="1"><g transform="translate(147.56889, 192.000225)"><g><path d="M 32.828125 -13.15625 L 11.734375 -13.15625 C 11.734375 -11.113281 12.394531 -9.597656 13.71875 -8.609375 C 15.039062 -7.628906 16.476562 -7.140625 18.03125 -7.140625 C 19.65625 -7.140625 20.941406 -7.359375 21.890625 -7.796875 C 22.835938 -8.234375 23.914062 -9.09375 25.125 -10.375 L 32.375 -6.75 C 29.351562 -1.6875 24.328125 0.84375 17.296875 0.84375 C 12.910156 0.84375 9.144531 -0.65625 6 -3.65625 C 2.863281 -6.664062 1.296875 -10.285156 1.296875 -14.515625 C 1.296875 -18.742188 2.863281 -22.367188 6 -25.390625 C 9.144531 -28.421875 12.910156 -29.9375 17.296875 -29.9375 C 21.910156 -29.9375 25.660156 -28.601562 28.546875 -25.9375 C 31.441406 -23.269531 32.890625 -19.460938 32.890625 -14.515625 C 32.890625 -13.835938 32.867188 -13.382812 32.828125 -13.15625 Z M 12.015625 -18.71875 L 23.078125 -18.71875 C 22.847656 -20.226562 22.25 -21.390625 21.28125 -22.203125 C 20.320312 -23.015625 19.085938 -23.421875 17.578125 -23.421875 C 15.910156 -23.421875 14.585938 -22.984375 13.609375 -22.109375 C 12.628906 -21.242188 12.097656 -20.113281 12.015625 -18.71875 Z M 12.015625 -18.71875 "/></g></g></g><g fill="#2b3441" fill-opacity="1"><g transform="translate(181.644551, 192.000225)"><g><path d="M 3.40625 0 L 3.40625 -29.09375 L 13.4375 -29.09375 L 13.4375 -26.03125 L 13.546875 -26.03125 C 16.160156 -28.632812 18.941406 -29.9375 21.890625 -29.9375 C 23.328125 -29.9375 24.753906 -29.75 26.171875 -29.375 C 27.585938 -29 28.945312 -28.410156 30.25 -27.609375 C 31.550781 -26.816406 32.609375 -25.691406 33.421875 -24.234375 C 34.234375 -22.785156 34.640625 -21.097656 34.640625 -19.171875 L 34.640625 0 L 24.609375 0 L 24.609375 -16.4375 C 24.609375 -17.957031 24.125 -19.28125 23.15625 -20.40625 C 22.195312 -21.539062 20.941406 -22.109375 19.390625 -22.109375 C 17.878906 -22.109375 16.507812 -21.519531 15.28125 -20.34375 C 14.050781 -19.175781 13.4375 -17.875 13.4375 -16.4375 L 13.4375 0 Z M 3.40625 0 "/></g></g></g><g fill="#2b3441" fill-opacity="1"><g transform="translate(219.12212, 192.000225)"><g><path d="M 20.640625 -47.625 C 23.171875 -47.625 25.644531 -47.253906 28.0625 -46.515625 C 30.488281 -45.785156 32.285156 -45.0625 33.453125 -44.34375 L 35.15625 -43.203125 L 30.84375 -34.703125 C 30.507812 -34.929688 30.035156 -35.222656 29.421875 -35.578125 C 28.816406 -35.941406 27.679688 -36.425781 26.015625 -37.03125 C 24.359375 -37.632812 22.8125 -37.9375 21.375 -37.9375 C 19.601562 -37.9375 18.234375 -37.554688 17.265625 -36.796875 C 16.296875 -36.046875 15.8125 -35.023438 15.8125 -33.734375 C 15.8125 -33.097656 16.039062 -32.503906 16.5 -31.953125 C 16.957031 -31.398438 17.734375 -30.8125 18.828125 -30.1875 C 19.921875 -29.570312 20.882812 -29.070312 21.71875 -28.6875 C 22.550781 -28.3125 23.835938 -27.742188 25.578125 -26.984375 C 28.597656 -25.703125 31.175781 -23.953125 33.3125 -21.734375 C 35.445312 -19.523438 36.515625 -17.023438 36.515625 -14.234375 C 36.515625 -11.546875 36.03125 -9.203125 35.0625 -7.203125 C 34.101562 -5.203125 32.78125 -3.632812 31.09375 -2.5 C 29.414062 -1.363281 27.554688 -0.523438 25.515625 0.015625 C 23.472656 0.566406 21.257812 0.84375 18.875 0.84375 C 16.832031 0.84375 14.828125 0.632812 12.859375 0.21875 C 10.898438 -0.1875 9.257812 -0.703125 7.9375 -1.328125 C 6.613281 -1.953125 5.421875 -2.566406 4.359375 -3.171875 C 3.304688 -3.773438 2.535156 -4.285156 2.046875 -4.703125 L 1.296875 -5.328125 L 6.640625 -14.296875 C 7.085938 -13.910156 7.707031 -13.425781 8.5 -12.84375 C 9.300781 -12.257812 10.710938 -11.472656 12.734375 -10.484375 C 14.753906 -9.503906 16.539062 -9.015625 18.09375 -9.015625 C 22.59375 -9.015625 24.84375 -10.546875 24.84375 -13.609375 C 24.84375 -14.253906 24.679688 -14.847656 24.359375 -15.390625 C 24.035156 -15.941406 23.46875 -16.488281 22.65625 -17.03125 C 21.84375 -17.582031 21.125 -18.019531 20.5 -18.34375 C 19.875 -18.664062 18.851562 -19.15625 17.4375 -19.8125 C 16.019531 -20.476562 14.972656 -20.984375 14.296875 -21.328125 C 11.453125 -22.722656 9.253906 -24.46875 7.703125 -26.5625 C 6.160156 -28.664062 5.390625 -30.925781 5.390625 -33.34375 C 5.390625 -37.539062 6.9375 -40.96875 10.03125 -43.625 C 13.132812 -46.289062 16.671875 -47.625 20.640625 -47.625 Z M 20.640625 -47.625 "/></g></g></g><g fill="#2b3441" fill-opacity="1"><g transform="translate(257.223371, 192.000225)"><g><path d="M 3.40625 0 L 3.40625 -48.765625 L 13.4375 -48.765625 L 13.4375 -26.03125 L 13.546875 -26.03125 C 16.160156 -28.632812 18.941406 -29.9375 21.890625 -29.9375 C 23.328125 -29.9375 24.753906 -29.75 26.171875 -29.375 C 27.585938 -29 28.945312 -28.410156 30.25 -27.609375 C 31.550781 -26.816406 32.609375 -25.691406 33.421875 -24.234375 C 34.234375 -22.785156 34.640625 -21.097656 34.640625 -19.171875 L 34.640625 0 L 24.609375 0 L 24.609375 -16.4375 C 24.609375 -17.957031 24.125 -19.28125 23.15625 -20.40625 C 22.195312 -21.539062 20.941406 -22.109375 19.390625 -22.109375 C 17.878906 -22.109375 16.507812 -21.519531 15.28125 -20.34375 C 14.050781 -19.175781 13.4375 -17.875 13.4375 -16.4375 L 13.4375 0 Z M 3.40625 0 "/></g></g></g><g fill="#2b3441" fill-opacity="1"><g transform="translate(294.70094, 192.000225)"><g><path d="M 6.140625 -3.453125 C 2.910156 -6.328125 1.296875 -10.015625 1.296875 -14.515625 C 1.296875 -19.015625 2.976562 -22.707031 6.34375 -25.59375 C 9.707031 -28.488281 13.867188 -29.9375 18.828125 -29.9375 C 23.703125 -29.9375 27.8125 -28.476562 31.15625 -25.5625 C 34.5 -22.65625 36.171875 -18.972656 36.171875 -14.515625 C 36.171875 -10.054688 34.535156 -6.378906 31.265625 -3.484375 C 27.992188 -0.597656 23.847656 0.84375 18.828125 0.84375 C 13.609375 0.84375 9.378906 -0.585938 6.140625 -3.453125 Z M 13.921875 -19.4375 C 12.617188 -18.15625 11.96875 -16.515625 11.96875 -14.515625 C 11.96875 -12.515625 12.585938 -10.878906 13.828125 -9.609375 C 15.078125 -8.347656 16.722656 -7.71875 18.765625 -7.71875 C 20.734375 -7.71875 22.347656 -8.359375 23.609375 -9.640625 C 24.878906 -10.921875 25.515625 -12.546875 25.515625 -14.515625 C 25.515625 -16.515625 24.863281 -18.15625 23.5625 -19.4375 C 22.257812 -20.726562 20.660156 -21.375 18.765625 -21.375 C 16.835938 -21.375 15.222656 -20.726562 13.921875 -19.4375 Z M 13.921875 -19.4375 "/></g></g></g><g fill="#2b3441" fill-opacity="1"><g transform="translate(332.065109, 192.000225)"><g><path d="M 33.34375 -25.484375 C 36.0625 -22.515625 37.421875 -18.875 37.421875 -14.5625 C 37.421875 -10.257812 36.0625 -6.613281 33.34375 -3.625 C 30.625 -0.644531 27.164062 0.84375 22.96875 0.84375 C 19.113281 0.84375 15.9375 -0.363281 13.4375 -2.78125 L 13.4375 14.75 L 3.40625 14.75 L 3.40625 -29.09375 L 13.328125 -29.09375 L 13.328125 -25.796875 L 13.4375 -25.796875 C 15.9375 -28.554688 19.113281 -29.9375 22.96875 -29.9375 C 27.164062 -29.9375 30.625 -28.453125 33.34375 -25.484375 Z M 24.796875 -9.640625 C 26.109375 -10.921875 26.765625 -12.5625 26.765625 -14.5625 C 26.765625 -16.570312 26.140625 -18.207031 24.890625 -19.46875 C 23.640625 -20.738281 21.992188 -21.375 19.953125 -21.375 C 17.992188 -21.375 16.378906 -20.726562 15.109375 -19.4375 C 13.847656 -18.15625 13.21875 -16.535156 13.21875 -14.578125 C 13.21875 -12.566406 13.867188 -10.921875 15.171875 -9.640625 C 16.472656 -8.359375 18.066406 -7.71875 19.953125 -7.71875 C 21.878906 -7.71875 23.492188 -8.359375 24.796875 -9.640625 Z M 24.796875 -9.640625 "/></g></g></g></svg>