<svg xmlns="http://www.w3.org/2000/svg" xmlns:xlink="http://www.w3.org/1999/xlink" width="1200" zoomAndPan="magnify" viewBox="0 0 900 374.999991" height="500" preserveAspectRatio="xMidYMid meet" version="1.0"><defs><g/><clipPath id="e6a2714420"><path d="M 13.351562 102.925781 L 198 102.925781 L 198 155 L 13.351562 155 Z M 13.351562 102.925781 " clip-rule="nonzero"/></clipPath></defs><path fill="#4fbf8b" d="M 35.738281 152.5 C 35.90625 152.5 36.078125 152.5 36.253906 152.5 C 36.542969 152.5 36.542969 152.5 36.84375 152.5 C 37.167969 152.5 37.167969 152.5 37.5 152.5 C 37.726562 152.5 37.953125 152.5 38.191406 152.5 C 38.824219 152.5 39.460938 152.5 40.097656 152.5 C 40.78125 152.5 41.464844 152.5 42.152344 152.5 C 43.335938 152.5 44.523438 152.503906 45.710938 152.503906 C 47.429688 152.503906 49.144531 152.503906 50.859375 152.503906 C 53.644531 152.507812 56.429688 152.507812 59.214844 152.507812 C 61.917969 152.511719 64.625 152.511719 67.328125 152.515625 C 67.496094 152.515625 67.664062 152.515625 67.832031 152.515625 C 68.667969 152.515625 69.503906 152.515625 70.339844 152.515625 C 77.28125 152.515625 84.21875 152.519531 91.160156 152.527344 C 91.160156 153.535156 90.824219 154.113281 90.382812 154.964844 C 88.191406 159.320312 86.585938 164.09375 85.714844 168.96875 C 85.679688 169.15625 85.644531 169.34375 85.609375 169.539062 C 84.445312 175.894531 84.523438 182.65625 85.714844 188.996094 C 85.746094 189.164062 85.777344 189.332031 85.808594 189.507812 C 87.222656 197.335938 90.632812 204.746094 95.242188 210.917969 C 95.324219 211.027344 95.40625 211.140625 95.488281 211.25 C 97.539062 214.011719 99.832031 216.574219 102.4375 218.71875 C 102.597656 218.851562 102.597656 218.851562 102.761719 218.988281 C 105.53125 221.28125 108.417969 223.230469 111.574219 224.832031 C 111.714844 224.902344 111.855469 224.976562 111.996094 225.046875 C 118.152344 228.1875 124.757812 229.726562 131.554688 229.734375 C 131.703125 229.734375 131.855469 229.734375 132.007812 229.734375 C 134.570312 229.734375 137.050781 229.546875 139.574219 229.050781 C 139.730469 229.019531 139.886719 228.992188 140.046875 228.960938 C 146.273438 227.765625 152.445312 225.160156 157.65625 221.25 C 157.972656 221.015625 157.972656 221.015625 158.292969 220.78125 C 159.992188 219.507812 161.558594 218.101562 163.101562 216.609375 C 163.207031 216.507812 163.316406 216.40625 163.425781 216.300781 C 164.632812 215.140625 165.761719 213.953125 166.796875 212.605469 C 166.949219 212.421875 167.101562 212.238281 167.257812 212.046875 C 169.152344 209.742188 170.785156 207.15625 172.164062 204.453125 C 172.25 204.28125 172.339844 204.113281 172.429688 203.9375 C 172.496094 203.804688 172.558594 203.675781 172.628906 203.542969 C 172.480469 203.542969 172.332031 203.542969 172.175781 203.542969 C 168.554688 203.546875 164.929688 203.550781 161.308594 203.550781 C 159.554688 203.554688 157.800781 203.554688 156.050781 203.558594 C 154.523438 203.558594 152.996094 203.5625 151.46875 203.5625 C 150.660156 203.5625 149.851562 203.5625 149.042969 203.5625 C 148.285156 203.566406 147.523438 203.566406 146.761719 203.566406 C 146.480469 203.566406 146.203125 203.566406 145.921875 203.566406 C 145.542969 203.566406 145.160156 203.566406 144.78125 203.566406 C 144.566406 203.566406 144.355469 203.566406 144.132812 203.566406 C 143.65625 203.542969 143.65625 203.542969 143.464844 203.332031 C 143.445312 203.011719 143.4375 202.691406 143.4375 202.371094 C 143.4375 202.164062 143.4375 201.957031 143.4375 201.742188 C 143.4375 201.511719 143.4375 201.28125 143.4375 201.046875 C 143.4375 200.804688 143.4375 200.566406 143.4375 200.316406 C 143.4375 199.519531 143.4375 198.71875 143.4375 197.921875 C 143.4375 197.371094 143.4375 196.816406 143.4375 196.265625 C 143.4375 195.105469 143.4375 193.949219 143.4375 192.789062 C 143.4375 191.445312 143.4375 190.105469 143.4375 188.761719 C 143.4375 187.472656 143.4375 186.1875 143.4375 184.898438 C 143.4375 184.347656 143.4375 183.800781 143.4375 183.25 C 143.4375 182.484375 143.4375 181.71875 143.4375 180.949219 C 143.4375 180.722656 143.4375 180.492188 143.4375 180.253906 C 143.4375 180.046875 143.4375 179.839844 143.4375 179.625 C 143.4375 179.445312 143.4375 179.261719 143.4375 179.078125 C 143.464844 178.664062 143.464844 178.664062 143.65625 178.453125 C 143.964844 178.433594 144.273438 178.429688 144.582031 178.429688 C 144.785156 178.429688 144.984375 178.425781 145.195312 178.425781 C 145.417969 178.425781 145.640625 178.429688 145.871094 178.429688 C 146.109375 178.429688 146.34375 178.425781 146.585938 178.425781 C 147.246094 178.425781 147.902344 178.425781 148.558594 178.425781 C 149.269531 178.429688 149.976562 178.425781 150.683594 178.425781 C 152.070312 178.425781 153.460938 178.425781 154.847656 178.425781 C 155.976562 178.425781 157.105469 178.425781 158.230469 178.425781 C 158.390625 178.425781 158.550781 178.425781 158.71875 178.425781 C 159.042969 178.425781 159.367188 178.425781 159.695312 178.425781 C 162.75 178.425781 165.804688 178.425781 168.859375 178.429688 C 171.480469 178.429688 174.105469 178.429688 176.730469 178.425781 C 179.773438 178.425781 182.816406 178.425781 185.859375 178.425781 C 186.183594 178.425781 186.507812 178.425781 186.832031 178.425781 C 187.070312 178.425781 187.070312 178.425781 187.316406 178.425781 C 188.441406 178.425781 189.570312 178.425781 190.695312 178.425781 C 192.070312 178.425781 193.441406 178.425781 194.8125 178.425781 C 195.515625 178.425781 196.214844 178.429688 196.917969 178.425781 C 197.675781 178.425781 198.433594 178.425781 199.191406 178.429688 C 199.414062 178.429688 199.640625 178.425781 199.871094 178.425781 C 200.070312 178.425781 200.273438 178.429688 200.480469 178.429688 C 200.65625 178.429688 200.832031 178.429688 201.011719 178.429688 C 201.40625 178.453125 201.40625 178.453125 201.601562 178.664062 C 201.65625 179.613281 201.648438 180.5625 201.648438 181.511719 C 201.648438 181.726562 201.648438 181.726562 201.648438 181.945312 C 201.644531 184.75 201.425781 187.488281 201.015625 190.261719 C 200.96875 190.601562 200.96875 190.601562 200.914062 190.953125 C 199.265625 201.953125 195.511719 212.761719 189.546875 221.882812 C 189.414062 222.082031 189.285156 222.285156 189.148438 222.492188 C 188.769531 223.066406 188.382812 223.632812 187.988281 224.199219 C 187.84375 224.414062 187.695312 224.628906 187.542969 224.847656 C 184.128906 229.757812 180.203125 234.308594 175.738281 238.113281 C 175.480469 238.339844 175.222656 238.5625 174.96875 238.789062 C 165.261719 247.199219 153.417969 252.472656 141.140625 254.320312 C 140.996094 254.339844 140.851562 254.363281 140.703125 254.386719 C 137.746094 254.824219 134.808594 255.023438 131.820312 255.019531 C 131.683594 255.019531 131.542969 255.019531 131.402344 255.019531 C 128.796875 255.011719 126.21875 254.878906 123.628906 254.558594 C 123.429688 254.53125 123.226562 254.507812 123.015625 254.480469 C 116.808594 253.679688 110.722656 251.925781 104.964844 249.289062 C 104.839844 249.230469 104.71875 249.175781 104.589844 249.117188 C 102.601562 248.207031 100.65625 247.210938 98.742188 246.125 C 98.609375 246.050781 98.476562 245.976562 98.339844 245.898438 C 96.429688 244.816406 94.609375 243.597656 92.8125 242.304688 C 92.621094 242.164062 92.425781 242.027344 92.230469 241.882812 C 91.132812 241.085938 90.085938 240.246094 89.0625 239.339844 C 88.636719 238.960938 88.199219 238.59375 87.757812 238.234375 C 86.953125 237.558594 86.203125 236.835938 85.453125 236.089844 C 85.046875 235.691406 84.632812 235.300781 84.214844 234.910156 C 83.277344 234.023438 82.402344 233.074219 81.523438 232.121094 C 81.367188 231.949219 81.207031 231.777344 81.046875 231.601562 C 80.097656 230.574219 79.191406 229.527344 78.328125 228.417969 C 78.226562 228.289062 78.125 228.160156 78.023438 228.027344 C 75.550781 224.832031 73.394531 221.4375 71.378906 217.886719 C 71.175781 217.527344 70.96875 217.167969 70.757812 216.808594 C 68.648438 213.058594 67.105469 208.910156 65.6875 204.804688 C 65.585938 204.507812 65.585938 204.507812 65.480469 204.199219 C 62.882812 196.597656 61.539062 188.261719 61.59375 180.167969 C 61.59375 179.917969 61.59375 179.671875 61.597656 179.417969 C 61.597656 178.8125 61.601562 178.214844 61.605469 177.613281 C 61.363281 177.617188 61.363281 177.617188 61.113281 177.625 C 53.625 177.800781 47.476562 176.167969 41.84375 170.519531 C 37.859375 166.207031 35.1875 160.082031 35.125 153.949219 C 35.132812 152.539062 35.132812 152.539062 35.738281 152.5 Z M 35.738281 152.5 " fill-opacity="1" fill-rule="nonzero"/><g clip-path="url(#e6a2714420)"><path fill="#4fbf8b" d="M 14.371094 102.953125 C 14.542969 102.953125 14.714844 102.953125 14.894531 102.953125 C 15.179688 102.953125 15.179688 102.953125 15.476562 102.953125 C 15.675781 102.953125 15.878906 102.953125 16.089844 102.953125 C 16.777344 102.953125 17.464844 102.953125 18.152344 102.953125 C 18.648438 102.953125 19.140625 102.953125 19.636719 102.949219 C 20.71875 102.949219 21.796875 102.949219 22.878906 102.949219 C 24.484375 102.949219 26.089844 102.949219 27.695312 102.949219 C 30.734375 102.945312 33.769531 102.945312 36.808594 102.945312 C 39.15625 102.945312 41.503906 102.945312 43.851562 102.945312 C 44.527344 102.945312 45.203125 102.945312 45.875 102.945312 C 46.042969 102.945312 46.210938 102.945312 46.386719 102.945312 C 51.109375 102.941406 55.835938 102.941406 60.5625 102.941406 C 60.742188 102.941406 60.917969 102.941406 61.105469 102.941406 C 62.007812 102.941406 62.910156 102.941406 63.816406 102.941406 C 63.996094 102.941406 64.175781 102.941406 64.359375 102.941406 C 64.722656 102.941406 65.085938 102.941406 65.449219 102.941406 C 71.089844 102.941406 76.726562 102.941406 82.367188 102.9375 C 88.703125 102.933594 95.035156 102.933594 101.371094 102.933594 C 102.050781 102.933594 102.726562 102.933594 103.402344 102.933594 C 103.570312 102.933594 103.734375 102.933594 103.90625 102.933594 C 106.582031 102.933594 109.257812 102.929688 111.929688 102.929688 C 114.625 102.925781 117.316406 102.925781 120.011719 102.929688 C 121.605469 102.929688 123.203125 102.929688 124.800781 102.925781 C 126 102.925781 127.195312 102.925781 128.394531 102.929688 C 128.875 102.929688 129.355469 102.929688 129.835938 102.925781 C 134.101562 102.917969 138.34375 103.148438 142.5625 103.863281 C 142.695312 103.886719 142.828125 103.90625 142.964844 103.929688 C 149.9375 105.109375 156.75 107.511719 163.015625 111.039062 C 163.605469 111.371094 164.203125 111.683594 164.804688 111.992188 C 169.84375 114.738281 174.316406 118.472656 178.535156 122.496094 C 178.8125 122.761719 179.097656 123.023438 179.378906 123.285156 C 179.523438 123.414062 179.664062 123.542969 179.8125 123.679688 C 179.988281 123.839844 179.988281 123.839844 180.167969 124.003906 C 180.40625 124.273438 180.40625 124.273438 180.40625 124.695312 C 180.582031 124.777344 180.582031 124.777344 180.757812 124.867188 C 181.183594 125.117188 181.457031 125.347656 181.765625 125.75 C 181.765625 125.886719 181.765625 126.027344 181.765625 126.167969 C 181.882812 126.226562 182 126.28125 182.121094 126.339844 C 182.566406 126.605469 182.792969 126.839844 183.117188 127.261719 C 183.570312 127.847656 184.027344 128.429688 184.496094 129.003906 C 188.535156 133.976562 191.957031 139.582031 194.605469 145.558594 C 194.800781 145.996094 194.996094 146.4375 195.195312 146.875 C 195.863281 148.371094 196.488281 149.878906 197.042969 151.425781 C 197.121094 151.636719 197.121094 151.636719 197.199219 151.851562 C 197.457031 152.597656 197.539062 153.03125 197.324219 153.785156 C 194.125 153.890625 190.925781 153.96875 187.726562 154.015625 C 186.242188 154.039062 184.757812 154.070312 183.273438 154.121094 C 181.976562 154.164062 180.683594 154.191406 179.386719 154.203125 C 178.699219 154.207031 178.015625 154.222656 177.332031 154.253906 C 173.183594 154.441406 173.183594 154.441406 171.945312 153.355469 C 171.09375 152.308594 170.515625 151.152344 169.964844 149.898438 C 169.589844 149.101562 169.105469 148.425781 168.582031 147.738281 C 168.496094 147.621094 168.410156 147.507812 168.320312 147.386719 C 167.238281 145.933594 166.085938 144.546875 164.851562 143.246094 C 163.878906 142.191406 163.878906 142.191406 163.589844 141.863281 C 156.328125 133.726562 144.667969 128.570312 134.292969 128.265625 C 133.070312 128.246094 131.851562 128.246094 130.632812 128.25 C 130.214844 128.25 129.800781 128.246094 129.386719 128.246094 C 128.25 128.246094 127.113281 128.246094 125.976562 128.246094 C 124.75 128.246094 123.519531 128.242188 122.292969 128.242188 C 120.304688 128.238281 118.316406 128.238281 116.328125 128.234375 C 112.972656 128.234375 109.613281 128.230469 106.257812 128.226562 C 104.960938 128.222656 103.667969 128.222656 102.375 128.21875 C 102.230469 128.21875 102.089844 128.21875 101.941406 128.21875 C 98.523438 128.214844 95.105469 128.210938 91.6875 128.207031 C 91.539062 128.207031 91.386719 128.207031 91.234375 128.207031 C 87.75 128.203125 84.261719 128.199219 80.777344 128.195312 C 80.550781 128.195312 80.550781 128.195312 80.320312 128.195312 C 79.113281 128.195312 77.902344 128.195312 76.695312 128.191406 C 71.707031 128.1875 66.71875 128.183594 61.734375 128.175781 C 61.027344 128.175781 60.324219 128.171875 59.617188 128.171875 C 59.480469 128.171875 59.339844 128.171875 59.195312 128.171875 C 56.96875 128.167969 54.742188 128.167969 52.511719 128.167969 C 50.273438 128.167969 48.03125 128.164062 45.789062 128.160156 C 44.578125 128.15625 43.363281 128.15625 42.152344 128.15625 C 41.039062 128.15625 39.925781 128.15625 38.816406 128.152344 C 38.414062 128.148438 38.015625 128.148438 37.613281 128.152344 C 30.90625 128.171875 25.054688 125.988281 20.191406 120.898438 C 19.980469 120.691406 19.980469 120.691406 19.765625 120.480469 C 17.675781 118.355469 16.300781 115.6875 15.136719 112.890625 C 15.039062 112.671875 14.945312 112.453125 14.851562 112.230469 C 14.28125 110.792969 13.976562 109.332031 13.714844 107.804688 C 13.679688 107.613281 13.644531 107.421875 13.613281 107.222656 C 13.398438 105.882812 13.292969 104.550781 13.386719 103.191406 C 13.683594 102.867188 13.957031 102.953125 14.371094 102.953125 Z M 14.371094 102.953125 " fill-opacity="1" fill-rule="nonzero"/></g><g fill="#2b3441" fill-opacity="1"><g transform="translate(214.345009, 226.312769)"><g><path d="M 8 0 L 8 -68.390625 L 31.59375 -68.390625 L 31.59375 -58.53125 L 31.859375 -58.53125 C 32.035156 -58.882812 32.320312 -59.328125 32.71875 -59.859375 C 33.125 -60.390625 33.992188 -61.320312 35.328125 -62.65625 C 36.660156 -63.988281 38.082031 -65.1875 39.59375 -66.25 C 41.101562 -67.320312 43.054688 -68.28125 45.453125 -69.125 C 47.859375 -69.96875 50.304688 -70.390625 52.796875 -70.390625 C 55.367188 -70.390625 57.898438 -70.03125 60.390625 -69.3125 C 62.878906 -68.601562 64.703125 -67.894531 65.859375 -67.1875 L 67.71875 -66.125 L 57.859375 -46.125 C 54.921875 -48.613281 50.832031 -49.859375 45.59375 -49.859375 C 42.75 -49.859375 40.300781 -49.234375 38.25 -47.984375 C 36.207031 -46.742188 34.765625 -45.234375 33.921875 -43.453125 C 33.078125 -41.679688 32.476562 -40.171875 32.125 -38.921875 C 31.769531 -37.679688 31.59375 -36.707031 31.59375 -36 L 31.59375 0 Z M 8 0 "/></g></g></g><g fill="#2b3441" fill-opacity="1"><g transform="translate(279.934063, 226.312769)"><g><path d="M 77.1875 -30.921875 L 27.59375 -30.921875 C 27.59375 -26.128906 29.144531 -22.578125 32.25 -20.265625 C 35.363281 -17.953125 38.742188 -16.796875 42.390625 -16.796875 C 46.210938 -16.796875 49.234375 -17.304688 51.453125 -18.328125 C 53.679688 -19.347656 56.21875 -21.367188 59.0625 -24.390625 L 76.125 -15.859375 C 69.007812 -3.953125 57.1875 2 40.65625 2 C 30.351562 2 21.507812 -1.53125 14.125 -8.59375 C 6.75 -15.664062 3.0625 -24.175781 3.0625 -34.125 C 3.0625 -44.082031 6.75 -52.613281 14.125 -59.71875 C 21.507812 -66.832031 30.351562 -70.390625 40.65625 -70.390625 C 51.5 -70.390625 60.320312 -67.253906 67.125 -60.984375 C 73.925781 -54.722656 77.328125 -45.769531 77.328125 -34.125 C 77.328125 -32.53125 77.28125 -31.460938 77.1875 -30.921875 Z M 28.265625 -44 L 54.265625 -44 C 53.722656 -47.550781 52.316406 -50.28125 50.046875 -52.1875 C 47.785156 -54.101562 44.878906 -55.0625 41.328125 -55.0625 C 37.421875 -55.0625 34.3125 -54.035156 32 -51.984375 C 29.6875 -49.941406 28.441406 -47.28125 28.265625 -44 Z M 28.265625 -44 "/></g></g></g><g fill="#2b3441" fill-opacity="1"><g transform="translate(360.320671, 226.312769)"><g><path d="M 77.1875 -30.921875 L 27.59375 -30.921875 C 27.59375 -26.128906 29.144531 -22.578125 32.25 -20.265625 C 35.363281 -17.953125 38.742188 -16.796875 42.390625 -16.796875 C 46.210938 -16.796875 49.234375 -17.304688 51.453125 -18.328125 C 53.679688 -19.347656 56.21875 -21.367188 59.0625 -24.390625 L 76.125 -15.859375 C 69.007812 -3.953125 57.1875 2 40.65625 2 C 30.351562 2 21.507812 -1.53125 14.125 -8.59375 C 6.75 -15.664062 3.0625 -24.175781 3.0625 -34.125 C 3.0625 -44.082031 6.75 -52.613281 14.125 -59.71875 C 21.507812 -66.832031 30.351562 -70.390625 40.65625 -70.390625 C 51.5 -70.390625 60.320312 -67.253906 67.125 -60.984375 C 73.925781 -54.722656 77.328125 -45.769531 77.328125 -34.125 C 77.328125 -32.53125 77.28125 -31.460938 77.1875 -30.921875 Z M 28.265625 -44 L 54.265625 -44 C 53.722656 -47.550781 52.316406 -50.28125 50.046875 -52.1875 C 47.785156 -54.101562 44.878906 -55.0625 41.328125 -55.0625 C 37.421875 -55.0625 34.3125 -54.035156 32 -51.984375 C 29.6875 -49.941406 28.441406 -47.28125 28.265625 -44 Z M 28.265625 -44 "/></g></g></g><g fill="#2b3441" fill-opacity="1"><g transform="translate(440.440648, 226.312769)"><g><path d="M 8 0 L 8 -68.390625 L 31.59375 -68.390625 L 31.59375 -61.1875 L 31.859375 -61.1875 C 37.992188 -67.320312 44.523438 -70.390625 51.453125 -70.390625 C 54.835938 -70.390625 58.191406 -69.941406 61.515625 -69.046875 C 64.847656 -68.160156 68.046875 -66.785156 71.109375 -64.921875 C 74.179688 -63.054688 76.671875 -60.410156 78.578125 -56.984375 C 80.492188 -53.566406 81.453125 -49.59375 81.453125 -45.0625 L 81.453125 0 L 57.859375 0 L 57.859375 -38.65625 C 57.859375 -42.21875 56.722656 -45.328125 54.453125 -47.984375 C 52.191406 -50.648438 49.238281 -51.984375 45.59375 -51.984375 C 42.039062 -51.984375 38.816406 -50.601562 35.921875 -47.84375 C 33.035156 -45.09375 31.59375 -42.03125 31.59375 -38.65625 L 31.59375 0 Z M 8 0 "/></g></g></g><g fill="#2b3441" fill-opacity="1"><g transform="translate(528.559319, 226.312769)"><g><path d="M 48.53125 -111.984375 C 54.476562 -111.984375 60.296875 -111.113281 65.984375 -109.375 C 71.671875 -107.644531 75.894531 -105.9375 78.65625 -104.25 L 82.65625 -101.578125 L 72.515625 -81.59375 C 71.722656 -82.125 70.613281 -82.8125 69.1875 -83.65625 C 67.769531 -84.5 65.101562 -85.628906 61.1875 -87.046875 C 57.28125 -88.472656 53.640625 -89.1875 50.265625 -89.1875 C 46.085938 -89.1875 42.863281 -88.296875 40.59375 -86.515625 C 38.320312 -84.742188 37.1875 -82.347656 37.1875 -79.328125 C 37.1875 -77.804688 37.71875 -76.398438 38.78125 -75.109375 C 39.851562 -73.828125 41.675781 -72.453125 44.25 -70.984375 C 46.832031 -69.523438 49.097656 -68.347656 51.046875 -67.453125 C 53.003906 -66.566406 56.03125 -65.234375 60.125 -63.453125 C 67.226562 -60.429688 73.289062 -56.320312 78.3125 -51.125 C 83.34375 -45.925781 85.859375 -40.039062 85.859375 -33.46875 C 85.859375 -27.15625 84.722656 -21.640625 82.453125 -16.921875 C 80.179688 -12.210938 77.066406 -8.523438 73.109375 -5.859375 C 69.160156 -3.191406 64.785156 -1.21875 59.984375 0.0625 C 55.191406 1.351562 49.992188 2 44.390625 2 C 39.585938 2 34.875 1.507812 30.25 0.53125 C 25.632812 -0.445312 21.769531 -1.664062 18.65625 -3.125 C 15.550781 -4.59375 12.753906 -6.035156 10.265625 -7.453125 C 7.773438 -8.878906 5.953125 -10.082031 4.796875 -11.0625 L 3.0625 -12.53125 L 15.59375 -33.59375 C 16.664062 -32.707031 18.132812 -31.570312 20 -30.1875 C 21.863281 -28.8125 25.171875 -26.96875 29.921875 -24.65625 C 34.679688 -22.351562 38.882812 -21.203125 42.53125 -21.203125 C 53.101562 -21.203125 58.390625 -24.800781 58.390625 -32 C 58.390625 -33.507812 58.007812 -34.90625 57.25 -36.1875 C 56.5 -37.476562 55.164062 -38.769531 53.25 -40.0625 C 51.34375 -41.351562 49.65625 -42.375 48.1875 -43.125 C 46.726562 -43.882812 44.332031 -45.039062 41 -46.59375 C 37.664062 -48.144531 35.195312 -49.320312 33.59375 -50.125 C 26.925781 -53.414062 21.769531 -57.523438 18.125 -62.453125 C 14.488281 -67.390625 12.671875 -72.703125 12.671875 -78.390625 C 12.671875 -88.253906 16.3125 -96.316406 23.59375 -102.578125 C 30.882812 -108.847656 39.195312 -111.984375 48.53125 -111.984375 Z M 48.53125 -111.984375 "/></g></g></g><g fill="#2b3441" fill-opacity="1"><g transform="translate(618.144414, 226.312769)"><g><path d="M 8 0 L 8 -114.65625 L 31.59375 -114.65625 L 31.59375 -61.1875 L 31.859375 -61.1875 C 37.992188 -67.320312 44.523438 -70.390625 51.453125 -70.390625 C 54.835938 -70.390625 58.191406 -69.941406 61.515625 -69.046875 C 64.847656 -68.160156 68.046875 -66.785156 71.109375 -64.921875 C 74.179688 -63.054688 76.671875 -60.410156 78.578125 -56.984375 C 80.492188 -53.566406 81.453125 -49.59375 81.453125 -45.0625 L 81.453125 0 L 57.859375 0 L 57.859375 -38.65625 C 57.859375 -42.21875 56.722656 -45.328125 54.453125 -47.984375 C 52.191406 -50.648438 49.238281 -51.984375 45.59375 -51.984375 C 42.039062 -51.984375 38.816406 -50.601562 35.921875 -47.84375 C 33.035156 -45.09375 31.59375 -42.03125 31.59375 -38.65625 L 31.59375 0 Z M 8 0 "/></g></g></g><g fill="#2b3441" fill-opacity="1"><g transform="translate(706.263086, 226.312769)"><g><path d="M 14.453125 -8.125 C 6.859375 -14.882812 3.0625 -23.550781 3.0625 -34.125 C 3.0625 -44.695312 7.015625 -53.382812 14.921875 -60.1875 C 22.835938 -66.988281 32.617188 -70.390625 44.265625 -70.390625 C 55.722656 -70.390625 65.382812 -66.96875 73.25 -60.125 C 81.113281 -53.28125 85.046875 -44.613281 85.046875 -34.125 C 85.046875 -23.632812 81.203125 -14.988281 73.515625 -8.1875 C 65.828125 -1.394531 56.078125 2 44.265625 2 C 31.992188 2 22.054688 -1.375 14.453125 -8.125 Z M 32.71875 -45.71875 C 29.65625 -42.695312 28.125 -38.832031 28.125 -34.125 C 28.125 -29.414062 29.585938 -25.570312 32.515625 -22.59375 C 35.453125 -19.613281 39.320312 -18.125 44.125 -18.125 C 48.75 -18.125 52.546875 -19.632812 55.515625 -22.65625 C 58.492188 -25.6875 59.984375 -29.507812 59.984375 -34.125 C 59.984375 -38.832031 58.453125 -42.695312 55.390625 -45.71875 C 52.328125 -48.75 48.570312 -50.265625 44.125 -50.265625 C 39.59375 -50.265625 35.789062 -48.75 32.71875 -45.71875 Z M 32.71875 -45.71875 "/></g></g></g><g fill="#2b3441" fill-opacity="1"><g transform="translate(794.115127, 226.312769)"><g><path d="M 78.390625 -59.921875 C 84.785156 -52.941406 87.984375 -44.382812 87.984375 -34.25 C 87.984375 -24.125 84.785156 -15.550781 78.390625 -8.53125 C 71.992188 -1.507812 63.859375 2 53.984375 2 C 44.921875 2 37.457031 -0.84375 31.59375 -6.53125 L 31.59375 34.65625 L 8 34.65625 L 8 -68.390625 L 31.328125 -68.390625 L 31.328125 -60.65625 L 31.59375 -60.65625 C 37.457031 -67.144531 44.921875 -70.390625 53.984375 -70.390625 C 63.859375 -70.390625 71.992188 -66.898438 78.390625 -59.921875 Z M 58.3125 -22.65625 C 61.382812 -25.6875 62.921875 -29.554688 62.921875 -34.265625 C 62.921875 -38.972656 61.453125 -42.816406 58.515625 -45.796875 C 55.585938 -48.773438 51.722656 -50.265625 46.921875 -50.265625 C 42.304688 -50.265625 38.507812 -48.75 35.53125 -45.71875 C 32.550781 -42.695312 31.0625 -38.878906 31.0625 -34.265625 C 31.0625 -29.554688 32.59375 -25.6875 35.65625 -22.65625 C 38.726562 -19.632812 42.484375 -18.125 46.921875 -18.125 C 51.453125 -18.125 55.25 -19.632812 58.3125 -22.65625 Z M 58.3125 -22.65625 "/></g></g></g></svg>